<svg width="24" height="24" viewBox="0 0 24 24" fill="none" xmlns="http://www.w3.org/2000/svg">
<path d="M7.30664 21.5802H16.6934C18.6182 21.5802 19.6465 20.543 19.6465 18.6007V10.629C19.6465 9.34578 19.4707 8.73055 18.6621 7.91316L14.2148 3.40437C13.4326 2.60457 12.7734 2.42 11.5869 2.42H7.30664C5.38184 2.42 4.35352 3.44832 4.35352 5.3907V18.6007C4.35352 20.543 5.37305 21.5802 7.30664 21.5802ZM7.5 19.6202C6.7002 19.6202 6.31348 19.2071 6.31348 18.4337V5.55769C6.31348 4.79305 6.7002 4.37117 7.50879 4.37117H11.1211V8.96785C11.1211 10.3389 11.7891 10.9981 13.1602 10.9981H17.6865V18.4337C17.6865 19.2071 17.2998 19.6202 16.4912 19.6202H7.5ZM13.3271 9.33699C12.958 9.33699 12.791 9.17 12.791 8.80086V4.5909L17.4756 9.33699H13.3271Z" fill="#2F2F2F"/>
</svg>
