<svg width="24" height="24" viewBox="0 0 24 24" fill="none" xmlns="http://www.w3.org/2000/svg">
  <path fill-rule="evenodd" clip-rule="evenodd"
        d="M5.79499 2.78549C6.34048 2.24651 7.13503 2 8.12529 2H19.0528C20.0473 2 20.8421 2.24635 21.3867 2.78572C21.9318 3.32559 22.1789 4.11213 22.1789 5.08981V18.9192C22.1789 19.8969 21.9318 20.6815 21.3863 21.2193C20.8415 21.7563 20.0466 22 19.0528 22H4.01727C3.05283 22 2.28458 21.755 1.75962 21.2248C1.23517 20.6951 1 19.9276 1 18.9828V11.1204C1 10.5206 1.19077 10.0138 1.57314 9.65902C1.95262 9.30693 2.486 9.1369 3.11042 9.1369H4.9992V5.08981C4.9992 4.11145 5.24889 3.32507 5.79499 2.78549ZM7.30208 4.29834C7.12971 4.4707 7.0164 4.7481 7.0164 5.17143V18.892C7.0164 19.2887 6.95869 19.6518 6.84781 19.9828H19.0256C19.4321 19.9828 19.705 19.8756 19.877 19.7053C20.0485 19.5354 20.1617 19.2609 20.1617 18.8376V5.17143C20.1617 4.7481 20.0484 4.47071 19.8761 4.29834C19.7036 4.12593 19.4307 4.0172 19.0256 4.0172H8.15249C7.7474 4.0172 7.47449 4.12592 7.30208 4.29834ZM8.24572 7.11209C8.24572 6.6381 8.62737 6.28939 9.09562 6.28939H18.1006C18.5628 6.28939 18.9415 6.64096 18.9415 7.11209C18.9415 7.5775 18.5776 7.96198 18.1006 7.96198H9.09562C8.61241 7.96198 8.24572 7.58044 8.24572 7.11209ZM8.24572 10.3223C8.24572 9.84814 8.61825 9.4815 9.09562 9.4815H18.1006C18.5718 9.4815 18.9415 9.85106 18.9415 10.3223C18.9415 10.7875 18.5689 11.1541 18.1006 11.1541H9.09562C8.62124 11.1541 8.24572 10.7904 8.24572 10.3223ZM3.07482 11.2121C3.04935 11.2369 3.0172 11.2892 3.0172 11.4015V18.9828C3.0172 19.553 3.45341 19.9828 4.01727 19.9828C4.57208 19.9828 4.9992 19.5802 4.9992 18.9828V11.1541H3.27365C3.15761 11.1541 3.10132 11.1863 3.07482 11.2121ZM14.8773 13.5325C14.8773 13.0582 15.2319 12.6827 15.7181 12.6827H18.0916C18.5777 12.6827 18.9324 13.0582 18.9324 13.5325C18.9324 14.0007 18.5658 14.3553 18.0916 14.3553H15.7181C15.2438 14.3553 14.8773 14.0008 14.8773 13.5325ZM14.8773 16.7973C14.8773 16.3349 15.229 15.9473 15.7181 15.9473H18.0916C18.5806 15.9473 18.9324 16.3349 18.9324 16.7973C18.9324 17.2654 18.5658 17.6199 18.0916 17.6199H15.7181C15.2439 17.6199 14.8773 17.2654 14.8773 16.7973ZM13.3643 16.235C13.3643 16.6361 13.2418 16.9898 12.988 17.2436C12.7342 17.4974 12.3804 17.6199 11.9794 17.6199H9.63065C9.226 17.6199 8.87001 17.498 8.61469 17.2442C8.35919 16.9902 8.23665 16.6361 8.23665 16.235V14.0767C8.23665 13.672 8.35861 13.3156 8.6141 13.0601C8.8696 12.8046 9.22597 12.6827 9.63065 12.6827H11.9794C12.3805 12.6827 12.7346 12.8052 12.9886 13.0607C13.2424 13.316 13.3643 13.672 13.3643 14.0767V16.235ZM9.83665 16.2199C9.72619 16.2199 9.63665 16.1304 9.63665 16.0199V14.2827C9.63665 14.1722 9.72619 14.0827 9.83665 14.0827H11.7643C11.8747 14.0827 11.9643 14.1722 11.9643 14.2827V16.0199C11.9643 16.1304 11.8747 16.2199 11.7643 16.2199H9.83665Z"
        fill="#2F2F2F"/>
</svg>
