<svg width="24" height="24" viewBox="0 0 24 24" fill="none" xmlns="http://www.w3.org/2000/svg">
<path fill-rule="evenodd" clip-rule="evenodd" d="M12 22.0541L12.2846 21.9487C18.0216 19.8239 21 16.1468 21 11V5.12198C20.9984 5.06763 20.9976 5.04049 20.9952 5.01349C20.9928 4.98656 20.9888 4.95977 20.9808 4.90626C20.8735 4.31054 20.352 3.9242 19.8158 4.04334L17.6735 4.51942C16.5629 4.76622 15.4148 4.37997 14.6139 3.49012L13.9092 2.70711C12.8548 1.53554 11.1452 1.53554 10.0908 2.70711L9.3861 3.49012C8.58524 4.37997 7.43711 4.76622 6.3265 4.51942L4.18415 4.04334L4.18415 4.04334C4.08771 4.02556 4.08771 4.02556 3.99 4.02198C3.44324 4.02198 3 4.51447 3 5.12198V11C3 16.1468 5.97841 19.8239 11.7154 21.9487L12 22.0541ZM19.2 6.21981V11C19.2 15.1073 16.8692 18.0625 12 19.9437C7.13081 18.0625 4.8 15.1073 4.8 11V6.21981L5.9735 6.48058C7.67425 6.85853 9.43247 6.26703 10.6589 4.90433L11.3636 4.12132C11.7151 3.7308 12.2849 3.7308 12.6364 4.12132L13.3411 4.90433C14.5675 6.26703 16.3258 6.85853 18.0265 6.48058L19.2 6.21981Z" fill="#2F2F2F"/>
</svg>
