<svg width="24" height="24" viewBox="0 0 24 24" fill="none" xmlns="http://www.w3.org/2000/svg">
<path fill-rule="evenodd" clip-rule="evenodd" d="M5 13.5C4.44772 13.5 4 13.9477 4 14.5V18.5C4 19.6046 4.89543 20.5 6 20.5H18C19.1046 20.5 20 19.6046 20 18.5V14.5C20 13.9477 19.5523 13.5 19 13.5V11.5C20.6569 11.5 22 12.8431 22 14.5V18.5C22 20.7091 20.2091 22.5 18 22.5H6C3.79086 22.5 2 20.7091 2 18.5V14.5C2 12.8431 3.34315 11.5 5 11.5V13.5Z" fill="#2F2F2F"/>
<path fill-rule="evenodd" clip-rule="evenodd" d="M18 9.5C18 12.8137 15.3137 15.5 12 15.5C8.68629 15.5 6 12.8137 6 9.5C6 6.18629 8.68629 3.5 12 3.5C15.3137 3.5 18 6.18629 18 9.5ZM17.2544 15.5327C18.9368 14.0661 20 11.9072 20 9.5C20 5.08172 16.4183 1.5 12 1.5C7.58172 1.5 4 5.08172 4 9.5C4 11.9072 5.06318 14.0661 6.74558 15.5327C6.31652 15.6452 6 16.0356 6 16.5C6 17.0523 6.44772 17.5 7 17.5H12H17C17.5523 17.5 18 17.0523 18 16.5C18 16.0356 17.6835 15.6452 17.2544 15.5327Z" fill="#2F2F2F"/>
</svg>
