<svg width="18" height="18" viewBox="0 0 18 18" fill="none" xmlns="http://www.w3.org/2000/svg">
  <path
    d="M3 10.5C3.41421 10.5 3.75 10.8358 3.75 11.25C3.75 11.6642 3.41421 12 3 12V13.5C3 14.3284 3.67157 15 4.5 15H13.5C14.3284 15 15 14.3284 15 13.5V4.5C15 3.67157 14.3284 3 13.5 3H4.5C3.67157 3 3 3.67157 3 4.5V6C3.41421 6 3.75 6.33579 3.75 6.75C3.75 7.16421 3.41421 7.5 3 7.5V10.5ZM4.5 1.5H13.5C15.1569 1.5 16.5 2.84315 16.5 4.5V13.5C16.5 15.1569 15.1569 16.5 13.5 16.5H4.5C2.84315 16.5 1.5 15.1569 1.5 13.5V4.5C1.5 2.84315 2.84315 1.5 4.5 1.5ZM9 13.5C6.51472 13.5 4.5 11.4853 4.5 9C4.5 6.51472 6.51472 4.5 9 4.5C11.4853 4.5 13.5 6.51472 13.5 9C13.5 11.4853 11.4853 13.5 9 13.5ZM9 12C10.6569 12 12 10.6569 12 9C12 7.34315 10.6569 6 9 6C7.34315 6 6 7.34315 6 9C6 10.6569 7.34315 12 9 12ZM9.75 8.25C10.1642 8.25 10.5 8.58579 10.5 9C10.5 9.41421 10.1642 9.75 9.75 9.75H8.25C7.83579 9.75 7.5 9.41421 7.5 9C7.5 8.58579 7.83579 8.25 8.25 8.25H9.75Z"
    fill="white"/>
</svg>
