<svg width="24" height="24" viewBox="0 0 24 24" fill="none" xmlns="http://www.w3.org/2000/svg">
<path d="M5 5C5 4.44772 5.44772 4 6 4C6.55228 4 7 4.44772 7 5V19C7 19.5523 6.55228 20 6 20C5.44772 20 5 19.5523 5 19V5Z" fill="#2E312D"/>
<path d="M9 11C9 10.4477 9.44772 10 10 10C10.5523 10 11 10.4477 11 11V19C11 19.5523 10.5523 20 10 20C9.44772 20 9 19.5523 9 19V11Z" fill="#2E312D"/>
<path d="M13 15C13 14.4477 13.4477 14 14 14C14.5523 14 15 14.4477 15 15V19C15 19.5523 14.5523 20 14 20C13.4477 20 13 19.5523 13 19V15Z" fill="#2E312D"/>
<path d="M17 9C17 8.44772 17.4477 8 18 8C18.5523 8 19 8.44772 19 9V19C19 19.5523 18.5523 20 18 20C17.4477 20 17 19.5523 17 19V9Z" fill="#2E312D"/>
</svg>
