<svg width="24" height="24" viewBox="0 0 24 24" fill="none" xmlns="http://www.w3.org/2000/svg">
  <path fill-rule="evenodd" clip-rule="evenodd"
        d="M5 13.5C4.44772 13.5 4 13.9477 4 14.5V18.5C4 19.6046 4.89543 20.5 6 20.5H18C19.1046 20.5 20 19.6046 20 18.5V14.5C20 13.9477 19.5523 13.5 19 13.5V11.5C20.6569 11.5 22 12.8431 22 14.5V18.5C22 20.7091 20.2091 22.5 18 22.5H6C3.79086 22.5 2 20.7091 2 18.5V14.5C2 12.8431 3.34315 11.5 5 11.5V13.5Z"
        fill="#2F2F2F"/>
  <path fill-rule="evenodd" clip-rule="evenodd"
        d="M5 16.5C5 15.9477 5.52233 15.5 6.16667 15.5H17.8333C18.4777 15.5 19 15.9477 19 16.5C19 17.0523 18.4777 17.5 17.8333 17.5H6.16667C5.52233 17.5 5 17.0523 5 16.5Z"
        fill="#2F2F2F"/>
  <path fill-rule="evenodd" clip-rule="evenodd"
        d="M16 3.5H8C7.44772 3.5 7 3.94772 7 4.5V15.5H17V4.5C17 3.94772 16.5523 3.5 16 3.5ZM8 1.5C6.34315 1.5 5 2.84315 5 4.5V17.5H19V4.5C19 2.84315 17.6569 1.5 16 1.5H8Z"
        fill="#2F2F2F"/>
  <path fill-rule="evenodd" clip-rule="evenodd"
        d="M15.2071 7.04289C15.5976 7.43342 15.5976 8.06658 15.2071 8.45711L11.9899 11.6743C11.4432 12.221 10.5568 12.221 10.0101 11.6743L8.79289 10.4571C8.40237 10.0666 8.40237 9.43342 8.79289 9.04289C9.18342 8.65237 9.81658 8.65237 10.2071 9.04289L11 9.83579L13.7929 7.04289C14.1834 6.65237 14.8166 6.65237 15.2071 7.04289Z"
        fill="#2F2F2F"/>
</svg>
