<svg width="24" height="24" viewBox="0 0 24 24" fill="none" xmlns="http://www.w3.org/2000/svg">
  <path fill-rule="evenodd" clip-rule="evenodd"
        d="M9.41421 22L20.7071 10.7071C22.6169 8.79732 22.2395 5.82533 20.2071 3.79289C18.1747 1.76046 15.2027 1.3831 13.2929 3.29289L2 14.5858V20C2 21.1046 2.89543 22 4 22H9.41421ZM19.2929 9.29289L19 9.58579L14.4142 5L14.7071 4.70711C15.7455 3.6687 17.4739 3.88816 18.7929 5.20711C20.1118 6.52605 20.3313 8.25448 19.2929 9.29289ZM13 6.41421L17.5858 11L10.681 17.9048C9.99778 15.7239 8.27613 14.0022 6.09525 13.319L13 6.41421ZM8.98435 19.6014C8.79163 17.1578 6.84216 15.2084 4.39856 15.0157L4 15.4142V20H8.58579L8.98435 19.6014Z"
        fill="#2F2F2F"/>
</svg>
