<svg width="24" height="24" viewBox="0 0 24 24" fill="none" xmlns="http://www.w3.org/2000/svg">
<path fill-rule="evenodd" clip-rule="evenodd" d="M7.06711 11.5877C6.97922 13.492 6.64719 14.7518 5.94406 15.533C5.77254 15.7243 5.5921 15.9168 5.42157 16.0987C5.15198 16.3862 4.90714 16.6473 4.76139 16.836C4.72638 16.8813 4.69708 16.9225 4.67453 16.9588V17.076H19.3034V16.9588C19.2809 16.9225 19.2517 16.8813 19.217 16.836C19.0575 16.628 18.7796 16.3319 18.4771 16.0094C18.3316 15.8544 18.1804 15.6933 18.0339 15.533C17.3405 14.7518 17.0085 13.492 16.9206 11.5877C16.8425 7.32016 15.573 5.96273 13.8933 5.50375C13.6491 5.44516 13.5222 5.32797 13.5124 5.07406C13.4734 4.05844 12.8972 3.34555 11.989 3.34555C11.0906 3.34555 10.5046 4.05844 10.4753 5.07406C10.4656 5.32797 10.3288 5.44516 10.0847 5.50375C8.41477 5.96273 7.14523 7.32016 7.06711 11.5877ZM10.1447 5.73614C9.36224 5.95192 8.6857 6.37158 8.18693 7.23732C7.68017 8.11694 7.3458 9.47633 7.30707 11.5921L7.30695 11.5988C7.21863 13.5123 6.88492 14.8463 6.12261 15.6934C5.94938 15.8866 5.76557 16.0827 5.59408 16.2656C5.51273 16.3523 5.43416 16.4361 5.36081 16.5153C5.24889 16.636 5.15137 16.7436 5.07192 16.836H18.9076C18.8286 16.7433 18.7317 16.6355 18.6204 16.5148C18.5244 16.4107 18.4169 16.2961 18.3052 16.177C18.1574 16.0195 18.0023 15.8542 17.8567 15.6949L17.8544 15.6923C17.1029 14.8456 16.7692 13.5126 16.6809 11.5988L16.6805 11.5921C16.6418 9.47629 16.3076 8.11703 15.7997 7.23753C15.2999 6.37188 14.621 5.95207 13.8334 5.73619C13.6902 5.70137 13.547 5.64169 13.4391 5.52545C13.326 5.40364 13.279 5.24988 13.2726 5.08331C13.2547 4.61679 13.1141 4.24062 12.8947 3.98544C12.6788 3.73446 12.3747 3.58555 11.989 3.58555C11.6086 3.58555 11.3043 3.73412 11.0882 3.98544C10.8688 4.24052 10.7286 4.61606 10.7152 5.08098L10.7151 5.08328C10.7086 5.25427 10.6568 5.40832 10.5407 5.52874C10.4309 5.64256 10.2871 5.70153 10.1447 5.73614ZM3.01763 18.413C2.70502 18.1578 2.54 17.7921 2.54 17.369C2.54 16.7998 2.82664 16.2829 3.19042 15.8184C3.4788 15.4502 3.83721 15.0893 4.18052 14.7436C4.26965 14.6539 4.35776 14.5652 4.44336 14.4776C4.72048 14.1873 4.91297 13.7233 5.04393 13.1661C5.17322 12.616 5.23569 12.0065 5.27453 11.4503C5.30944 9.51374 5.57753 7.89452 6.18041 6.63316C6.77068 5.39816 7.67888 4.51348 8.97713 4.01338C9.35758 2.70272 10.4736 1.67 11.989 1.67C13.5149 1.67 14.6211 2.70383 15.0096 4.01302C16.3084 4.51306 17.2169 5.39786 17.8073 6.63316C18.4102 7.89452 18.6783 9.51374 18.7133 11.4503C18.7521 12.0065 18.8145 12.616 18.9438 13.1661C19.0749 13.7235 19.2675 14.1877 19.5448 14.478C19.6399 14.5765 19.7386 14.6765 19.8386 14.7779C20.169 15.1129 20.514 15.4626 20.7934 15.8181C21.158 16.282 21.4477 16.7992 21.4477 17.369C21.4477 17.7934 21.2792 18.1589 20.966 18.4134C20.6579 18.6637 20.2305 18.7906 19.7331 18.7906H15.8358C15.6477 20.703 14.1155 22.3258 11.989 22.3258C9.87144 22.3258 8.34058 20.6938 8.15206 18.7906H4.25461C3.75284 18.7906 3.32495 18.6639 3.01763 18.413ZM8.3757 18.5506H4.25461C3.32688 18.5506 2.78 18.0819 2.78 17.369C2.78 16.4949 3.57022 15.699 4.3453 14.9184C4.43616 14.8269 4.5268 14.7356 4.61594 14.6444C5.26047 13.9705 5.43625 12.5838 5.51438 11.4608C5.58273 7.61312 6.57883 5.13266 9.17648 4.19516C9.49875 2.91586 10.5534 1.91 11.989 1.91C13.4343 1.91 14.4792 2.91586 14.8112 4.19516C17.4089 5.13266 18.405 7.61312 18.4734 11.4608C18.5515 12.5838 18.7273 13.9705 19.3718 14.6444C19.4712 14.7472 19.5728 14.8502 19.6746 14.9535C20.4334 15.7229 21.2077 16.508 21.2077 17.369C21.2077 18.0819 20.6511 18.5506 19.7331 18.5506H15.612C15.5339 20.4452 14.0593 22.0858 11.989 22.0858C9.92844 22.0858 8.45383 20.4354 8.3757 18.5506ZM9.89914 18.5506C9.90336 18.6325 9.91055 18.7125 9.9206 18.7906C10.0735 19.978 10.8894 20.7088 11.989 20.7088C13.0977 20.7088 13.9056 19.978 14.0656 18.7906C14.0761 18.7125 14.0838 18.6325 14.0886 18.5506H9.89914ZM10.1627 18.7906C10.2322 19.2862 10.4267 19.6803 10.7013 19.9595C11.0201 20.2835 11.4621 20.4688 11.989 20.4688C12.5211 20.4688 12.963 20.2833 13.2815 19.9595C13.556 19.6804 13.7506 19.2865 13.8232 18.7906H10.1627Z" fill="#2F2F2F"/>
<path fill-rule="evenodd" clip-rule="evenodd" d="M4.25461 18.5506H8.3757C8.45383 20.4354 9.92844 22.0858 11.989 22.0858C14.0593 22.0858 15.5339 20.4452 15.612 18.5506H19.7331C20.6511 18.5506 21.2077 18.0819 21.2077 17.369C21.2077 16.508 20.4334 15.7229 19.6746 14.9535C19.5728 14.8502 19.4712 14.7472 19.3718 14.6444C18.7273 13.9705 18.5515 12.5838 18.4734 11.4608C18.405 7.61312 17.4089 5.13266 14.8112 4.19516C14.4792 2.91586 13.4343 1.91 11.989 1.91C10.5534 1.91 9.49875 2.91586 9.17648 4.19516C6.57883 5.13266 5.58273 7.61312 5.51438 11.4608C5.43625 12.5838 5.26047 13.9705 4.61594 14.6444C4.5268 14.7356 4.43616 14.8269 4.3453 14.9184C3.57022 15.699 2.78 16.4949 2.78 17.369C2.78 18.0819 3.32688 18.5506 4.25461 18.5506ZM7.06711 11.5877C6.97922 13.492 6.64719 14.7518 5.94406 15.533C5.77254 15.7243 5.5921 15.9168 5.42157 16.0987C5.15198 16.3862 4.90714 16.6473 4.76139 16.836C4.72638 16.8813 4.69708 16.9225 4.67453 16.9588V17.076H19.3034V16.9588C19.2809 16.9225 19.2517 16.8813 19.217 16.836C19.0575 16.628 18.7796 16.3319 18.4771 16.0094C18.3316 15.8544 18.1804 15.6933 18.0339 15.533C17.3405 14.7518 17.0085 13.492 16.9206 11.5877C16.8425 7.32016 15.573 5.96273 13.8933 5.50375C13.6491 5.44516 13.5222 5.32797 13.5124 5.07406C13.4734 4.05844 12.8972 3.34555 11.989 3.34555C11.0906 3.34555 10.5046 4.05844 10.4753 5.07406C10.4656 5.32797 10.3288 5.44516 10.0847 5.50375C8.41477 5.96273 7.14523 7.32016 7.06711 11.5877ZM9.89914 18.5506C9.90336 18.6325 9.91055 18.7125 9.9206 18.7906C10.0735 19.978 10.8894 20.7088 11.989 20.7088C13.0977 20.7088 13.9056 19.978 14.0656 18.7906C14.0761 18.7125 14.0838 18.6325 14.0886 18.5506H9.89914Z" fill="#2F2F2F"/>
</svg>
