<svg width="24" height="24" viewBox="0 0 24 24" fill="none" xmlns="http://www.w3.org/2000/svg">
  <path
    d="M7 4.09022H17V3.66146C17 2.53595 16.3874 2 15.2016 2H8.79842C7.61265 2 7 2.53595 7 3.66146V4.09022ZM10.8142 22H13.1858C14.3715 22 14.9743 21.464 14.9743 20.3385V10.8522C14.9743 9.91425 15.2213 9.23537 15.5968 8.71728L16.2391 7.85976C16.6937 7.22555 17 6.62707 17 5.8678V5.13533H7V5.8678C7 6.62707 7.30632 7.22555 7.76087 7.85976L8.39328 8.71728C8.77866 9.23537 9.01581 9.91425 9.01581 10.8522V20.3385C9.01581 21.464 9.62846 22 10.8142 22ZM12 15.1309C11.1897 15.1309 10.666 14.5949 10.666 13.8446V11.3971C10.666 10.6378 11.1897 10.1286 12 10.1465C12.8004 10.1554 13.334 10.6646 13.334 11.3971V13.8446C13.334 14.5949 12.8004 15.1309 12 15.1309ZM12 14.4967C12.4348 14.4967 12.8103 14.1661 12.8103 13.7642C12.8103 13.3622 12.4348 13.0228 12 13.0228C11.5553 13.0228 11.1798 13.3622 11.1798 13.7642C11.1798 14.1661 11.5553 14.4967 12 14.4967Z"
    fill="#2F2F2F"/>
</svg>
