<svg width="25" height="24" viewBox="0 0 25 24" fill="none" xmlns="http://www.w3.org/2000/svg">
<path d="M6.81299 15.6606C7.2915 15.6606 7.56006 15.4165 7.73096 14.8208L7.97021 14.0688H10.3823L10.6216 14.8501C10.7778 15.4263 11.0464 15.6606 11.564 15.6606C12.0864 15.6606 12.4624 15.3042 12.4624 14.8013C12.4624 14.6157 12.4282 14.4497 12.3452 14.2202L10.5923 9.44482C10.3237 8.7124 9.89404 8.3999 9.15674 8.3999C8.4585 8.3999 8.02393 8.72705 7.76514 9.44482L6.02686 14.2202C5.94873 14.4351 5.8999 14.6548 5.8999 14.8062C5.8999 15.3384 6.24658 15.6606 6.81299 15.6606ZM8.32666 12.7163L9.12744 10.0015H9.1665L9.9917 12.7163H8.32666Z" fill="#2F2F2F"/>
<path d="M14.2251 15.5532H16.6909C18.1997 15.5532 19.1519 14.7573 19.1519 13.522C19.1519 12.5845 18.3999 11.8765 17.4478 11.8325V11.7935C18.229 11.686 18.8247 11.0562 18.8247 10.2651C18.8247 9.17627 17.9897 8.50732 16.603 8.50732H14.2251C13.6587 8.50732 13.3267 8.84912 13.3267 9.44482V14.6157C13.3267 15.2114 13.6587 15.5532 14.2251 15.5532ZM15.1187 11.3784V9.77686H16.1294C16.73 9.77686 17.0815 10.0698 17.0815 10.563C17.0815 11.0708 16.6909 11.3784 16.0415 11.3784H15.1187ZM15.1187 14.2837V12.4673H16.1733C16.9106 12.4673 17.3306 12.7896 17.3306 13.3657C17.3306 13.9614 16.9204 14.2837 16.1831 14.2837H15.1187Z" fill="#2F2F2F"/>
<path fill-rule="evenodd" clip-rule="evenodd" d="M20.5 4.5H4.5C3.94772 4.5 3.5 4.94772 3.5 5.5V18.5C3.5 19.0523 3.94772 19.5 4.5 19.5H20.5C21.0523 19.5 21.5 19.0523 21.5 18.5V5.5C21.5 4.94772 21.0523 4.5 20.5 4.5ZM4.5 2.5C2.84315 2.5 1.5 3.84315 1.5 5.5V18.5C1.5 20.1569 2.84315 21.5 4.5 21.5H20.5C22.1569 21.5 23.5 20.1569 23.5 18.5V5.5C23.5 3.84315 22.1569 2.5 20.5 2.5H4.5Z" fill="#2F2F2F"/>
</svg>
