<svg width="16" height="16" viewBox="0 0 16 16" fill="black" xmlns="http://www.w3.org/2000/svg">
<path fill-rule="evenodd" clip-rule="evenodd" d="M8.66634 3.66732H3.99967C3.26329 3.66732 2.66634 4.26427 2.66634 5.00065V7.66732C2.66634 8.4037 3.2633 9.00065 3.99967 9.00065H8.66634C9.17107 9.00065 9.6103 8.7202 9.83669 8.30663C10.0135 7.98367 10.2982 7.66732 10.6663 7.66732C11.0345 7.66732 11.3416 7.97043 11.2507 8.32724C10.957 9.48081 9.91133 10.334 8.66634 10.334H3.99967C2.52692 10.334 1.33301 9.14008 1.33301 7.66732V5.00065C1.33301 3.52789 2.52692 2.33398 3.99967 2.33398H8.66634C9.91133 2.33398 10.957 3.18716 11.2507 4.34073C11.3416 4.69754 11.0345 5.00065 10.6663 5.00065C10.2982 5.00065 10.0135 4.6843 9.83669 4.36134C9.6103 3.94777 9.17107 3.66732 8.66634 3.66732ZM11.9997 7.00065H7.33301C6.82828 7.00065 6.38905 7.2811 6.16266 7.69467C5.98586 8.01764 5.7012 8.33398 5.33301 8.33398C4.96482 8.33398 4.65779 8.03087 4.74863 7.67406C5.0423 6.52049 6.08802 5.66732 7.33301 5.66732H11.9997C13.4724 5.66732 14.6663 6.86123 14.6663 8.33398V11.0007C14.6663 12.4734 13.4724 13.6673 11.9997 13.6673H7.33301C6.08802 13.6673 5.0423 12.8141 4.74863 11.6606C4.65779 11.3038 4.96482 11.0007 5.33301 11.0007C5.7012 11.0007 5.98586 11.317 6.16266 11.64C6.38905 12.0535 6.82828 12.334 7.33301 12.334H11.9997C12.7361 12.334 13.333 11.737 13.333 11.0007V8.33398C13.333 7.5976 12.7361 7.00065 11.9997 7.00065Z"/>
</svg>
