<svg width="24" height="24" viewBox="0 0 24 24" fill="none" xmlns="http://www.w3.org/2000/svg">
<path d="M8.23633 3.38867C7.91849 3.35076 7.5923 3.38976 7.28516 3.50781C6.36623 3.85936 5.16802 4.40814 4.12109 5.25391L4.09375 5.27539L4.06836 5.29688C3.60387 5.72747 3.34881 6.24396 3.02344 6.95117C2.69807 7.65839 2.37002 8.53113 2.07227 9.51367C1.47675 11.4788 1 13.8703 1 16.1641C1 16.4041 1.06291 16.6536 1.1875 16.873C1.99369 18.2961 3.38757 19.0892 4.62891 19.5645C5.86014 20.0359 6.90378 20.1957 7.5 20.2168C7.51943 20.2175 7.56864 20.2246 7.57031 20.2246C7.9779 20.2246 8.50727 20.0745 8.80469 19.5117L9.72656 17.7676C11.253 18.0349 12.6982 18.0311 14.2656 17.752L15.1934 19.5078C15.4917 20.077 16.026 20.2227 16.4297 20.2227C16.4312 20.2227 16.4775 20.2174 16.4941 20.2168C17.0904 20.1962 18.1373 20.035 19.3711 19.5625C20.6109 19.0877 22.0024 18.2965 22.8086 16.877C22.9372 16.6537 23 16.403 23 16.1641C23 13.8703 22.5224 11.4776 21.9238 9.50977C21.6246 8.52586 21.2956 7.64972 20.9668 6.93946C20.638 6.22919 20.3733 5.70783 19.9082 5.27735L19.8828 5.25586L19.8574 5.23438C18.8215 4.39688 17.629 3.85433 16.7129 3.50586C16.1002 3.27238 15.4092 3.35534 14.8672 3.72852C14.4486 4.01636 14.3068 4.51435 14.1973 5H9.80273C9.69282 4.51479 9.55186 4.01632 9.13477 3.72852C8.86364 3.54143 8.55416 3.42659 8.23633 3.38867ZM8 5.375C8 6.26106 8.73894 7 9.625 7H14.373C15.2579 7 15.9989 6.25965 16 5.375H16.002C16.7883 5.67413 17.7963 6.15792 18.5625 6.76758C18.5802 6.78951 18.8775 7.18982 19.1504 7.7793C19.4292 8.38159 19.7338 9.18446 20.0098 10.0918C20.5461 11.8551 20.9488 14.0263 20.9727 15.9922C20.4907 16.7431 19.6026 17.3329 18.6562 17.6953C17.8044 18.0216 17.0977 18.1062 16.7363 18.1465L16.2734 17.2695C16.6167 17.1688 16.9576 17.0699 17.3203 16.9473C17.4468 16.9069 17.5639 16.8417 17.665 16.7556C17.766 16.6694 17.8488 16.564 17.9087 16.4455C17.9686 16.327 18.0042 16.1978 18.0136 16.0654C18.023 15.933 18.006 15.8 17.9635 15.6742C17.9209 15.5484 17.8538 15.4324 17.766 15.3329C17.6781 15.2333 17.5713 15.1523 17.4518 15.0944C17.3323 15.0366 17.2025 15.0031 17.07 14.9959C16.9374 14.9888 16.8047 15.0081 16.6797 15.0527C12.8496 16.3479 10.9651 16.3492 7.33398 15.0586C7.20863 15.0117 7.07513 14.9904 6.94141 14.9961C6.70898 15.0073 6.48772 15.0991 6.31573 15.2559C6.14375 15.4126 6.03181 15.6245 5.9992 15.8549C5.96658 16.0853 6.01533 16.3198 6.13704 16.5182C6.25876 16.7165 6.44582 16.8662 6.66602 16.9414C7.02989 17.0707 7.37505 17.1762 7.7207 17.2813L7.26367 18.1465C6.90254 18.1062 6.19557 18.0215 5.34375 17.6953C4.3974 17.333 3.50976 16.7457 3.02734 15.9941C3.05091 14.0278 3.45222 11.8562 3.98633 10.0938C4.26107 9.18717 4.56371 8.3873 4.83984 7.78711C5.10963 7.20071 5.40707 6.80139 5.41602 6.78711C6.19667 6.16649 7.21087 5.67689 8 5.375ZM9.03906 9.9961C8.21006 9.9961 7.53906 10.8892 7.53906 11.9922C7.53906 13.0952 8.21006 13.9883 9.03906 13.9883C9.86806 13.9883 10.5391 13.0952 10.5391 11.9922C10.5211 10.8892 9.87106 9.8861 9.03906 9.9961ZM14.9961 10.0117C14.5983 10.0117 14.2167 10.2224 13.9354 10.5975C13.6541 10.9726 13.4961 11.4813 13.4961 12.0117C13.4961 12.5422 13.6541 13.0509 13.9354 13.4259C14.2167 13.801 14.5983 14.0117 14.9961 14.0117C15.3939 14.0117 15.7755 13.801 16.0568 13.4259C16.3381 13.0509 16.4961 12.5422 16.4961 12.0117C16.4961 11.4813 16.3381 10.9726 16.0568 10.5975C15.7755 10.2224 15.3939 10.0117 14.9961 10.0117Z" fill="#2F2F2F"/>
</svg>
