<svg width="24" height="24" viewBox="0 0 24 24" fill="none" xmlns="http://www.w3.org/2000/svg">
<path d="M8.23633 3.38899C7.91849 3.35107 7.5923 3.39007 7.28516 3.50813C6.36623 3.85967 5.16802 4.40845 4.12109 5.25422L4.09375 5.27571L4.06836 5.29719C3.60387 5.72778 3.34881 6.24427 3.02344 6.95149C2.69807 7.6587 2.37002 8.53145 2.07227 9.51399C1.47675 11.4791 1 13.8706 1 16.1644C1 16.4044 1.06291 16.6539 1.1875 16.8734C1.99369 18.2965 3.38757 19.0895 4.62891 19.5648C5.86014 20.0362 6.90378 20.196 7.5 20.2171C7.51943 20.2178 7.56864 20.2249 7.57031 20.2249C7.9779 20.2249 8.50727 20.0748 8.80469 19.512L9.72656 17.7679C11.253 18.0352 12.6982 18.0314 14.2656 17.7523L15.1934 19.5081C15.4917 20.0773 16.026 20.223 16.4297 20.223C16.4312 20.223 16.4775 20.2177 16.4941 20.2171C17.0904 20.1966 18.1373 20.0353 19.3711 19.5628C20.6109 19.088 22.0024 18.2968 22.8086 16.8773C22.9372 16.654 23 16.4033 23 16.1644C23 13.8706 22.5224 11.4779 21.9238 9.51008C21.6246 8.52617 21.2956 7.65004 20.9668 6.93977C20.638 6.2295 20.3733 5.70814 19.9082 5.27766L19.8828 5.25617L19.8574 5.23469C18.8215 4.39719 17.629 3.85464 16.7129 3.50617C16.1002 3.27269 15.4092 3.35566 14.8672 3.72883C14.4486 4.01667 14.3068 4.51467 14.1973 5.00031H9.80273C9.69282 4.5151 9.55186 4.01664 9.13477 3.72883C8.86364 3.54174 8.55416 3.4269 8.23633 3.38899ZM8 5.37531C8 6.26138 8.73894 7.00031 9.625 7.00031H14.373C15.2579 7.00031 15.9989 6.25996 16 5.37531H16.002C16.7883 5.67445 17.7963 6.15824 18.5625 6.76789C18.5802 6.78982 18.8775 7.19014 19.1504 7.77961C19.4292 8.38191 19.7338 9.18477 20.0098 10.0921C20.5461 11.8555 20.9488 14.0266 20.9727 15.9925C20.4907 16.7435 19.6026 17.3332 18.6562 17.6956C17.8044 18.0219 17.0977 18.1065 16.7363 18.1468L16.2734 17.2698C16.6167 17.1691 16.9576 17.0702 17.3203 16.9476C17.4468 16.9072 17.5639 16.842 17.665 16.7559C17.766 16.6697 17.8488 16.5644 17.9087 16.4459C17.9686 16.3274 18.0042 16.1981 18.0136 16.0657C18.023 15.9333 18.006 15.8003 17.9635 15.6745C17.9209 15.5488 17.8538 15.4327 17.766 15.3332C17.6781 15.2336 17.5713 15.1526 17.4518 15.0947C17.3323 15.0369 17.2025 15.0034 17.07 14.9962C16.9374 14.9891 16.8047 15.0084 16.6797 15.053C12.8496 16.3482 10.9651 16.3495 7.33398 15.0589C7.20863 15.012 7.07513 14.9908 6.94141 14.9964C6.70898 15.0076 6.48772 15.0995 6.31573 15.2562C6.14375 15.413 6.03181 15.6248 5.9992 15.8552C5.96658 16.0856 6.01533 16.3201 6.13704 16.5185C6.25876 16.7168 6.44582 16.8665 6.66602 16.9417C7.02989 17.0711 7.37505 17.1765 7.7207 17.2816L7.26367 18.1468C6.90254 18.1065 6.19557 18.0218 5.34375 17.6956C4.3974 17.3333 3.50976 16.746 3.02734 15.9945C3.05091 14.0281 3.45222 11.8565 3.98633 10.0941C4.26107 9.18748 4.56371 8.38762 4.83984 7.78742C5.10963 7.20102 5.40707 6.8017 5.41602 6.78742C6.19667 6.16681 7.21087 5.6772 8 5.37531ZM9.03906 9.99641C8.21006 9.99641 7.53906 10.8895 7.53906 11.9925C7.53906 13.0955 8.21006 13.9886 9.03906 13.9886C9.86806 13.9886 10.5391 13.0955 10.5391 11.9925C10.5211 10.8895 9.87106 9.88641 9.03906 9.99641ZM14.9961 10.012C14.5983 10.012 14.2167 10.2227 13.9354 10.5978C13.6541 10.9729 13.4961 11.4816 13.4961 12.012C13.4961 12.5425 13.6541 13.0512 13.9354 13.4262C14.2167 13.8013 14.5983 14.012 14.9961 14.012C15.3939 14.012 15.7755 13.8013 16.0568 13.4262C16.3381 13.0512 16.4961 12.5425 16.4961 12.012C16.4961 11.4816 16.3381 10.9729 16.0568 10.5978C15.7755 10.2227 15.3939 10.012 14.9961 10.012Z" fill="#2F2F2F"/>
</svg>
