<svg width="24" height="24" viewBox="0 0 24 24" fill="none" xmlns="http://www.w3.org/2000/svg">
  <path fill-rule="evenodd" clip-rule="evenodd"
        d="M18.5 3.5H5.5C4.39543 3.5 3.5 4.39543 3.5 5.5V18.5C3.5 19.6046 4.39543 20.5 5.5 20.5H18.5C19.6046 20.5 20.5 19.6046 20.5 18.5V5.5C20.5 4.39543 19.6046 3.5 18.5 3.5ZM5.5 1.5C3.29086 1.5 1.5 3.29086 1.5 5.5V18.5C1.5 20.7091 3.29086 22.5 5.5 22.5H18.5C20.7091 22.5 22.5 20.7091 22.5 18.5V5.5C22.5 3.29086 20.7091 1.5 18.5 1.5H5.5Z"
        fill="#2F2F2F"/>
  <path fill-rule="evenodd" clip-rule="evenodd"
        d="M8.17272 16.5H15.8273C15.6933 15.9868 15.4728 15.5932 15.133 15.3002C14.721 14.9449 13.8572 14.5 12 14.5C10.1428 14.5 9.27905 14.9449 8.86702 15.3002C8.52717 15.5932 8.30671 15.9868 8.17272 16.5ZM7.98995 16.498C7.98994 16.4979 7.99043 16.4981 7.99146 16.4987L7.98995 16.498ZM16.0101 16.498C16.0101 16.498 16.0096 16.4983 16.0086 16.4987L16.0101 16.498ZM8.00001 18.5C6.89544 18.5 5.93828 17.5952 6.12722 16.5069C6.45964 14.5922 7.66067 12.5 12 12.5C16.3393 12.5 17.5404 14.5922 17.8728 16.5069C18.0617 17.5952 17.1046 18.5 16 18.5H8.00001Z"
        fill="#2F2F2F"/>
  <path fill-rule="evenodd" clip-rule="evenodd"
        d="M12 8C11.4477 8 11 8.44772 11 9C11 9.55228 11.4477 10 12 10C12.5523 10 13 9.55228 13 9C13 8.44772 12.5523 8 12 8ZM9 9C9 7.34315 10.3431 6 12 6C13.6569 6 15 7.34315 15 9C15 10.6569 13.6569 12 12 12C10.3431 12 9 10.6569 9 9Z"
        fill="#2F2F2F"/>
</svg>
