<svg width="24" height="24" viewBox="0 0 24 24" fill="none" xmlns="http://www.w3.org/2000/svg">
  <path
    d="M18 4.67601L17.4472 4.9524C16.9532 5.19939 16.3526 4.99917 16.1056 4.50519C15.8586 4.01121 16.0588 3.41054 16.5528 3.16355L18.5348 2.17254C18.5471 2.16607 18.5596 2.15983 18.5722 2.15386L19 1.93994L19.4278 2.15386C19.4404 2.15983 19.4529 2.16607 19.4652 2.17254L21.4472 3.16355C21.9412 3.41054 22.1414 4.01121 21.8944 4.50519C21.6474 4.99917 21.0468 5.19939 20.5528 4.9524L20 4.67601V5.05798C20 12.2377 14.1797 18.058 7 18.058C6.44772 18.058 6 17.6103 6 17.058C6 16.5057 6.44772 16.058 7 16.058C13.0751 16.058 18 11.1331 18 5.05798V4.67601ZM2 3.05798C2 2.50569 2.44772 2.05798 3 2.05798C3.55228 2.05798 4 2.50569 4 3.05798V18.058C4 19.1625 4.89543 20.058 6 20.058H21C21.5523 20.058 22 20.5057 22 21.058C22 21.6103 21.5523 22.058 21 22.058H6C3.79086 22.058 2 20.2671 2 18.058V3.05798Z"
    fill="#01B26E"/>
</svg>
