<svg width="25" height="24" viewBox="0 0 25 24" fill="none" xmlns="http://www.w3.org/2000/svg">
<path fill-rule="evenodd" clip-rule="evenodd" d="M6.875 22.0006C4.66586 22.0006 2.875 20.2097 2.875 18.0006V8.30031C2.875 7.11475 3.5732 6.04038 4.65658 5.55888L12.0627 2.26726C12.5799 2.03743 13.1701 2.03743 13.6873 2.26726L21.0934 5.55888C22.1768 6.04038 22.875 7.11475 22.875 8.30031V18.0006C22.875 20.2097 21.0841 22.0006 18.875 22.0006H6.875ZM5.46886 7.38732L12.0627 4.45672C12.5799 4.22688 13.1701 4.22688 13.6873 4.45671L20.2811 7.38732C20.6423 7.54782 20.875 7.90594 20.875 8.30113V18.0014C20.875 19.106 19.9796 20.0014 18.875 20.0014H6.875C5.77043 20.0014 4.875 19.106 4.875 18.0014V8.30113C4.875 7.90594 5.10773 7.54782 5.46886 7.38732Z" fill="#01B26E"/>
<path fill-rule="evenodd" clip-rule="evenodd" d="M8.88817 16.5355C9.85704 17.4732 11.1711 18 12.5413 18C13.566 18.002 14.5681 17.708 15.4192 17.1558C16.2704 16.6036 16.932 15.8181 17.3194 14.9C17.3784 14.7612 17.3908 14.608 17.3548 14.462C17.3188 14.3161 17.2362 14.1848 17.1187 14.0868C17.0012 13.9889 16.8549 13.9292 16.7004 13.9163C16.5459 13.9034 16.3911 13.938 16.2581 14.015C15.8057 14.2833 15.286 14.4263 14.7554 14.4286C13.9725 14.4286 13.2216 14.1275 12.6679 13.5917C12.1143 13.0559 11.8033 12.3292 11.8033 11.5714C11.8034 11.1265 11.912 10.6878 12.1201 10.291C12.3282 9.89428 12.63 9.55059 13.0011 9.28786C13.1244 9.1974 13.215 9.07152 13.26 8.92822C13.3049 8.78492 13.3019 8.63153 13.2513 8.49C13.2004 8.34694 13.1046 8.22282 12.9774 8.13498C12.8501 8.04713 12.6976 7.99994 12.5413 8C11.1711 8 9.85704 8.52678 8.88817 9.46447C7.91931 10.4021 7.375 11.6739 7.375 13C7.375 14.3261 7.91931 15.5978 8.88817 16.5355ZM9.57647 10.8873C9.86977 10.4957 10.2422 10.1659 10.6711 9.91786C10.443 10.4411 10.326 11.0035 10.3272 11.5714C10.3283 12.7077 10.7953 13.7971 11.6255 14.6006C12.4557 15.4041 13.5813 15.856 14.7554 15.8571C14.3534 16.1443 13.8952 16.3495 13.4088 16.4601C12.9224 16.5708 12.4178 16.5848 11.9257 16.5011C11.4335 16.4174 10.9641 16.2379 10.5457 15.9734C10.1274 15.7089 9.76896 15.3649 9.49211 14.9623C9.21526 14.5597 9.02577 14.1069 8.93514 13.6313C8.84451 13.1557 8.85462 12.6673 8.96486 12.1956C9.0751 11.7239 9.28318 11.2788 9.57647 10.8873ZM16.275 8C16.8273 8 17.275 8.44772 17.275 9V9.5H17.775C18.3273 9.5 18.775 9.94772 18.775 10.5C18.775 11.0523 18.3273 11.5 17.775 11.5H17.275V12C17.275 12.5523 16.8273 13 16.275 13C15.7227 13 15.275 12.5523 15.275 12V11.5H14.775C14.2227 11.5 13.775 11.0523 13.775 10.5C13.775 9.94772 14.2227 9.5 14.775 9.5H15.275V9C15.275 8.44772 15.7227 8 16.275 8Z" fill="#01B26E"/>
</svg>
