<svg width="24" height="24" viewBox="0 0 24 24" fill="none" xmlns="http://www.w3.org/2000/svg">
<path fill-rule="evenodd" clip-rule="evenodd" d="M12 20C16.4183 20 20 16.4183 20 12C20 7.58172 16.4183 4 12 4C7.58172 4 4 7.58172 4 12C4 16.4183 7.58172 20 12 20ZM12 22C17.5228 22 22 17.5228 22 12C22 6.47715 17.5228 2 12 2C6.47715 2 2 6.47715 2 12C2 17.5228 6.47715 22 12 22Z" fill="#2F2F2F"/>
<path fill-rule="evenodd" clip-rule="evenodd" d="M15.274 2.86676C15.6237 3.29421 15.5607 3.92423 15.1332 4.27396L4.13324 13.274C3.70579 13.6237 3.07577 13.5607 2.72604 13.1332C2.37631 12.7058 2.43932 12.0758 2.86676 11.726L13.8668 2.72604C14.2942 2.37631 14.9242 2.43932 15.274 2.86676Z" fill="#2F2F2F"/>
<path fill-rule="evenodd" clip-rule="evenodd" d="M21.774 10.3668C22.1237 10.7942 22.0607 11.4242 21.6332 11.774L10.6332 20.774C10.2058 21.1237 9.57577 21.0607 9.22604 20.6332C8.87631 20.2058 8.93932 19.5758 9.36676 19.226L20.3668 10.226C20.7942 9.87631 21.4242 9.93932 21.774 10.3668Z" fill="#2F2F2F"/>
<path fill-rule="evenodd" clip-rule="evenodd" d="M19.2657 5.85681C19.6209 6.2797 19.5661 6.91048 19.1432 7.2657L6.64318 17.7657C6.2203 18.1209 5.58951 18.0661 5.23429 17.6432C4.87906 17.2203 4.93391 16.5895 5.3568 16.2343L17.8568 5.7343C18.2797 5.37907 18.9105 5.43392 19.2657 5.85681Z" fill="#2F2F2F"/>
</svg>
