<svg width="40" height="40" viewBox="0 0 40 40" fill="none" xmlns="http://www.w3.org/2000/svg">
<circle cx="20" cy="20" r="19" stroke="#CFD1DB" stroke-width="2" stroke-dasharray="2 4"/>
<path d="M38.8833 17.8434C39.4287 17.7811 39.9239 18.1728 39.959 18.7206C40.2002 22.482 39.3736 26.2426 37.5647 29.5646C35.597 33.1782 32.5626 36.0969 28.8754 37.9228C25.1881 39.7487 21.0275 40.393 16.9607 39.7677C12.8939 39.1425 9.11897 37.2781 6.15054 34.4289C3.18211 31.5797 1.1647 27.8842 0.373369 23.8465C-0.417959 19.8087 0.0553157 15.6252 1.72866 11.8662C3.40201 8.1073 6.19398 4.95595 9.7239 2.84186C12.969 0.898336 16.6926 -0.0815779 20.4608 0.00530039C21.0096 0.0179534 21.4212 0.496716 21.3813 1.0442V1.0442C21.3414 1.59169 20.8651 2.0003 20.3162 1.99065C16.9563 1.93162 13.6395 2.81391 10.7453 4.54728C7.56622 6.45124 5.05175 9.28937 3.54473 12.6747C2.0377 16.06 1.61147 19.8277 2.32414 23.4642C3.03682 27.1006 4.85372 30.4287 7.5271 32.9947C10.2005 35.5608 13.6002 37.2398 17.2628 37.8029C20.9254 38.366 24.6725 37.7858 27.9932 36.1414C31.314 34.497 34.0467 31.8684 35.8188 28.614C37.4322 25.6512 38.1779 22.301 37.9813 18.9463C37.9492 18.3983 38.3379 17.9057 38.8833 17.8434V17.8434Z" fill="#01B26E"/>
<path fill-rule="evenodd" clip-rule="evenodd" d="M16 10.5C16 9.94772 16.4477 9.5 17 9.5H23C23.5523 9.5 24 9.94772 24 10.5C24 11.0523 23.5523 11.5 23 11.5H17C16.4477 11.5 16 11.0523 16 10.5ZM20 28.5C23.866 28.5 27 25.366 27 21.5C27 17.634 23.866 14.5 20 14.5C16.134 14.5 13 17.634 13 21.5C13 25.366 16.134 28.5 20 28.5ZM20 30.5C24.9706 30.5 29 26.4706 29 21.5C29 16.5294 24.9706 12.5 20 12.5C15.0294 12.5 11 16.5294 11 21.5C11 26.4706 15.0294 30.5 20 30.5ZM21 16.5C21 15.9477 20.5523 15.5 20 15.5C19.4477 15.5 19 15.9477 19 16.5V20.7769C19 21.4719 19.4487 22.0875 20.1104 22.3002L23.694 23.452C24.2198 23.621 24.783 23.3318 24.952 22.806C25.121 22.2802 24.8318 21.717 24.306 21.548L21 20.4853V16.5Z" fill="#01B26E"/>
</svg>
