<svg width="24" height="24" viewBox="0 0 24 24" fill="none" xmlns="http://www.w3.org/2000/svg">
  <path fill-rule="evenodd" clip-rule="evenodd"
        d="M6.83205 10.1547C7.36619 9.35349 9.21968 7.6 12 7.6C14.7803 7.6 16.6338 9.35349 17.1679 10.1547L17.7227 10.9867L19.3868 9.87735L18.8321 9.0453C18.0329 7.8465 15.6197 5.6 12 5.6C8.38032 5.6 5.96715 7.8465 5.16795 9.0453L4.61325 9.87735L6.27735 10.9867L6.83205 10.1547ZM7.54037 15.7262L2.5 10.6858L1.08578 12.1L7.45963 18.4738L11.9596 14.4738L15.9671 18.4813L22.9126 12.1673L21.5673 10.6874L16.0329 15.7187L12.0404 11.7262L7.54037 15.7262Z"
        fill="#2F2F2F"/>
</svg>
