<svg width="24" height="24" viewBox="0 0 24 24" fill="none" xmlns="http://www.w3.org/2000/svg">
<path fill-rule="evenodd" clip-rule="evenodd" d="M7.55556 2C4.48731 2 2 4.48731 2 7.55556V16.4444C2 19.5127 4.48731 22 7.55556 22H16.4444C19.5127 22 22 19.5127 22 16.4444V7.55556C22 4.48731 19.5127 2 16.4444 2H7.55556ZM4.22222 7.55556C4.22222 5.71461 5.71461 4.22222 7.55556 4.22222H16.4444C18.2854 4.22222 19.7778 5.71461 19.7778 7.55556V16.4444C19.7778 18.2854 18.2854 19.7778 16.4444 19.7778H7.55556C5.71461 19.7778 4.22222 18.2854 4.22222 16.4444V7.55556ZM18.1111 7C18.1111 7.61365 17.6137 8.11111 17 8.11111C16.3863 8.11111 15.8889 7.61365 15.8889 7C15.8889 6.38636 16.3863 5.88889 17 5.88889C17.6137 5.88889 18.1111 6.38636 18.1111 7ZM12 9.77778C10.7727 9.77778 9.77778 10.7727 9.77778 12C9.77778 13.2273 10.7727 14.2222 12 14.2222C13.2273 14.2222 14.2222 13.2273 14.2222 12C14.2222 10.7727 13.2273 9.77778 12 9.77778ZM7.55556 12C7.55556 9.5454 9.5454 7.55556 12 7.55556C14.4546 7.55556 16.4444 9.5454 16.4444 12C16.4444 14.4546 14.4546 16.4444 12 16.4444C9.5454 16.4444 7.55556 14.4546 7.55556 12Z" fill="#2F2F2F"/>
</svg>
