<svg width="24" height="24" viewBox="0 0 24 24" fill="none" xmlns="http://www.w3.org/2000/svg">
  <path fill-rule="evenodd" clip-rule="evenodd"
        d="M12.5822 21.9518C14.5114 21.6303 15.8147 19.8057 15.4932 17.8764L15.1805 16H18C19.1046 16 20 15.1046 20 14V4C20 2.89543 19.1046 2 18 2H6C4.89543 2 4 2.89543 4 4V14C4 15.1046 4.89543 16 6 16H8.81954L8.5068 17.8764C8.47473 18.0688 8.45862 18.2636 8.45862 18.4586C8.45862 20.4145 10.0441 22 12 22C12.1951 22 12.3898 21.9839 12.5822 21.9518ZM10 4V5C10 5.55228 9.55228 6 9 6C8.44772 6 8 5.55228 8 5V4H6V10H18V4H16V7C16 7.55228 15.5523 8 15 8C14.4477 8 14 7.55228 14 7V4H10ZM6 12V14H9.40977C9.49239 14 9.57487 14.0068 9.65637 14.0204C10.4735 14.1566 11.0256 14.9294 10.8894 15.7466L10.4796 18.2052C10.4656 18.289 10.4586 18.3737 10.4586 18.4586C10.4586 19.3099 11.1487 20 12 20C12.0849 20 12.1697 19.993 12.2534 19.979C13.0931 19.8391 13.6604 19.0449 13.5204 18.2052L13.1106 15.7466C13.0971 15.6651 13.0902 15.5826 13.0902 15.5C13.0902 14.6716 13.7618 14 14.5902 14H18V12H6Z"
        fill="#2F2F2F"/>
</svg>
