<svg width="18" height="18" viewBox="0 0 18 18" fill="none" xmlns="http://www.w3.org/2000/svg">
  <path fill-rule="evenodd" clip-rule="evenodd"
        d="M13.701 12.5646C14.0232 12.8868 14.0232 13.4091 13.701 13.7313C13.3789 14.0535 12.8565 14.0535 12.5343 13.7313L8.99268 10.1897L5.45105 13.7313C5.12886 14.0535 4.6065 14.0535 4.28432 13.7313C3.96214 13.4091 3.96214 12.8868 4.28432 12.5646L7.82596 9.02296L4.26117 5.45817C3.93899 5.13599 3.93899 4.61362 4.26117 4.29144C4.58335 3.96926 5.10571 3.96926 5.42789 4.29144L8.99268 7.85623L12.5575 4.29144C12.8797 3.96926 13.402 3.96926 13.7242 4.29144C14.0464 4.61362 14.0464 5.13599 13.7242 5.45817L10.1594 9.02296L13.701 12.5646Z"
        fill="#E16363"/>
</svg>
