<svg width="18" height="18" viewBox="0 0 18 18" fill="none" xmlns="http://www.w3.org/2000/svg">
<path fill-rule="evenodd" clip-rule="evenodd" d="M15 9C15 12.3137 12.3137 15 9 15C5.68629 15 3 12.3137 3 9C3 5.68629 5.68629 3 9 3C12.3137 3 15 5.68629 15 9ZM16.5 9C16.5 13.1421 13.1421 16.5 9 16.5C4.85786 16.5 1.5 13.1421 1.5 9C1.5 4.85786 4.85786 1.5 9 1.5C13.1421 1.5 16.5 4.85786 16.5 9ZM9.75 4.5C9.75 4.08579 9.41421 3.75 9 3.75C8.58579 3.75 8.25 4.08579 8.25 4.5V8.59861L6.33397 9.87596C5.98933 10.1057 5.8962 10.5714 6.12596 10.916C6.35573 11.2607 6.82138 11.3538 7.16603 11.124L9.21564 9.75763C9.54948 9.53507 9.75 9.16039 9.75 8.75917V4.5Z" fill="white"/>
</svg>
