<svg width="20" height="20" viewBox="0 0 20 20" fill="none" xmlns="http://www.w3.org/2000/svg">
<path fill-rule="evenodd" clip-rule="evenodd" d="M17.1484 2.73946C17.4764 3.06232 17.4805 3.58994 17.1577 3.91793L4.50143 16.7751C4.17856 17.1031 3.65094 17.1072 3.32295 16.7844C2.99497 16.4615 2.99081 15.9339 3.31368 15.6059L3.91276 14.9973C3.39561 14.4802 2.93221 13.8845 2.53828 13.2115C1.37786 11.2291 1.37786 8.77091 2.53828 6.78847C5.18373 2.26905 10.8735 1.32628 14.7958 3.94145L15.9699 2.74874C16.2928 2.42075 16.8204 2.41659 17.1484 2.73946ZM13.6 5.15625C10.4443 3.25921 6.04924 4.08966 3.97665 7.63042C3.12063 9.09283 3.12063 10.9072 3.97665 12.3696C4.29624 12.9156 4.66909 13.3951 5.082 13.8095L6.77913 12.0854C6.41448 11.4945 6.20406 10.7964 6.20406 10.0506C6.20406 7.93913 7.89123 6.20582 10.0008 6.20582C10.7349 6.20582 11.4203 6.41718 12.0003 6.78134L13.6 5.15625ZM10.779 8.02203C10.5377 7.92528 10.2753 7.87249 10.0008 7.87249C8.83669 7.87249 7.87073 8.83442 7.87073 10.0506C7.87073 10.327 7.92083 10.5906 8.01209 10.8329L10.779 8.02203ZM16.3242 6.49026C16.7214 6.25776 17.2318 6.39128 17.4643 6.78847C18.6247 8.77091 18.6247 11.2291 17.4643 13.2115C15.2332 17.0231 10.8319 18.2894 7.16387 17.0269C6.72869 16.8771 6.49733 16.4029 6.64712 15.9677C6.79691 15.5325 7.27112 15.3012 7.7063 15.451C10.683 16.4756 14.2269 15.443 16.026 12.3696C16.882 10.9072 16.882 9.09282 16.026 7.63042C15.7935 7.23323 15.927 6.72276 16.3242 6.49026ZM12.9652 9.21725C13.4254 9.21725 13.7985 9.59035 13.7985 10.0506C13.7985 12.1616 12.1099 13.8944 10.0008 13.8944C9.5406 13.8944 9.1675 13.5213 9.1675 13.0611C9.1675 12.6008 9.5406 12.2277 10.0008 12.2277C11.1655 12.2277 12.1319 11.2653 12.1319 10.0506C12.1319 9.59035 12.505 9.21725 12.9652 9.21725Z" fill="#2F2F2F"/>
</svg>
