<svg width="22" height="22" viewBox="0 0 22 22" fill="none" xmlns="http://www.w3.org/2000/svg">
<path fill-rule="evenodd" clip-rule="evenodd" d="M7.71019 2.15658C7.50925 1.69191 6.96966 1.47811 6.50498 1.67905C6.04031 1.87999 5.82651 2.41958 6.02745 2.88425L13.3608 19.8426C13.5617 20.3073 14.1013 20.5211 14.566 20.3201C15.0307 20.1192 15.2445 19.5796 15.0435 19.1149L7.71019 2.15658ZM4.5939 11.9843L7.02816 7.5076L7.95259 9.64532L6.20452 12.8601C5.35806 14.4167 5.93379 16.3648 7.49044 17.2113C8.67781 17.8569 10.0929 17.6751 11.0732 16.8617L11.82 18.5887C10.3131 19.5912 8.31524 19.7466 6.61464 18.8219C4.16847 17.4918 3.26375 14.4304 4.5939 11.9843ZM15.7828 8.67759L13.4133 13.0352L14.3377 15.1729L17.3934 9.55339C18.7235 7.10721 17.8188 4.04589 15.3726 2.71574C13.34 1.61047 10.8827 2.04828 9.34675 3.63133L10.1781 5.55391C11.0411 4.04135 12.9598 3.49057 14.4968 4.32636C16.0535 5.17282 16.6292 7.12093 15.7828 8.67759Z" fill="#2F2F2F"/>
</svg>
