<svg width="24" height="24" viewBox="0 0 24 24" fill="none" xmlns="http://www.w3.org/2000/svg">
<path fill-rule="evenodd" clip-rule="evenodd" d="M6.34266 17.8201C6.71894 18.1967 7.13493 18.5391 7.58926 18.8416C9.42467 20.0658 11.6261 20.5012 13.7895 20.0689C15.0842 19.8102 16.2719 19.2591 17.2793 18.4646H16.1488C15.5616 18.4646 15.0855 17.9886 15.0855 17.4014C15.0855 16.8141 15.5616 16.3381 16.1488 16.3381H19.7353C20.2489 16.3381 20.6652 16.7544 20.6652 17.268V21.2084C20.6652 21.7556 20.2218 22.1993 19.6745 22.1996C19.127 22.1998 18.6829 21.756 18.6829 21.2084V19.923C17.3967 20.979 15.8627 21.7097 14.1852 22.0455C11.4945 22.5832 8.75379 22.0409 6.47067 20.5188C5.9064 20.1427 5.38764 19.7154 4.92007 19.2475C2.39984 16.7273 1.32708 13.0109 2.1957 9.49992L2.20345 9.47211C2.34932 8.94956 2.85229 8.6889 3.3691 8.85394L3.57564 8.91989C4.02831 9.06445 4.28264 9.54411 4.14828 9.99992C3.4576 12.8149 4.32002 15.7972 6.34266 17.8201Z" fill="#2F2F2F"/>
<path fill-rule="evenodd" clip-rule="evenodd" d="M17.7589 6.23261C17.3826 5.85599 16.9666 5.51359 16.5123 5.21114C14.6769 3.98698 12.4755 3.55151 10.312 3.9838C9.01733 4.2425 7.82968 4.79359 6.82226 5.58809L7.95277 5.58809C8.54001 5.58809 9.01606 6.06414 9.01606 6.65138C9.01606 7.23862 8.54001 7.71467 7.95277 7.71467L4.36628 7.71467C3.85268 7.71467 3.43633 7.29831 3.43633 6.78472L3.43633 2.84431C3.43633 2.29709 3.87981 1.85341 4.42704 1.85316C4.97461 1.85292 5.41863 2.29674 5.41863 2.84431L5.41863 4.12976C6.70487 3.07373 8.23886 2.34301 9.9164 2.00728C12.6071 1.46958 15.3478 2.01185 17.6309 3.53393C18.1952 3.90999 18.7139 4.3373 19.1815 4.80522C21.7017 7.32545 22.7745 11.0418 21.9059 14.5528L21.8981 14.5806C21.7522 15.1032 21.2493 15.3638 20.7325 15.1988L20.5259 15.1328C20.0732 14.9883 19.8189 14.5086 19.9533 14.0528C20.644 11.2379 19.7815 8.25555 17.7589 6.23261Z" fill="#2F2F2F"/>
</svg>
