<svg width="24" height="24" viewBox="0 0 24 24" fill="black" xmlns="http://www.w3.org/2000/svg">
  <path fill-rule="evenodd" clip-rule="evenodd"
        d="M20 12C20 16.4183 16.4183 20 12 20C7.58172 20 4 16.4183 4 12C4 7.58172 7.58172 4 12 4C16.4183 4 20 7.58172 20 12ZM22 12C22 17.5228 17.5228 22 12 22C6.47715 22 2 17.5228 2 12C2 6.47715 6.47715 2 12 2C17.5228 2 22 6.47715 22 12Z"/>
  <path fill-rule="evenodd" clip-rule="evenodd"
        d="M12 8C12.5523 8 13 7.55228 13 7C13 6.44772 12.5523 6 12 6C11.4477 6 11 6.44772 11 7C11 7.55228 11.4477 8 12 8ZM13 10C13 9.44772 12.5523 9 12 9H10C9.44772 9 9 9.44772 9 10C9 10.5523 9.44772 11 10 11H11V15H10C9.44772 15 9 15.4477 9 16C9 16.5523 9.44772 17 10 17H12H14C14.5523 17 15 16.5523 15 16C15 15.4477 14.5523 15 14 15H13V10Z"/>
</svg>
