<svg width="24" height="24" viewBox="0 0 24 24" fill="none" xmlns="http://www.w3.org/2000/svg">
<path fill-rule="evenodd" clip-rule="evenodd" d="M12 2C10.8954 2 10 2.89543 10 4H3C2.44772 4 2 4.44772 2 5C2 5.55228 2.44772 6 3 6H4V18C4 20.2091 5.79086 22 8 22H16C18.2091 22 20 20.2091 20 18V6H21C21.5523 6 22 5.55228 22 5C22 4.44772 21.5523 4 21 4H14C14 2.89543 13.1046 2 12 2ZM6 18V6H18V18C18 19.1046 17.1046 20 16 20H8C6.89543 20 6 19.1046 6 18ZM13 11C13 10.4477 13.4477 10 14 10C14.5523 10 15 10.4477 15 11V15C15 15.5523 14.5523 16 14 16C13.4477 16 13 15.5523 13 15V11ZM10 10C9.44772 10 9 10.4477 9 11V15C9 15.5523 9.44772 16 10 16C10.5523 16 11 15.5523 11 15V11C11 10.4477 10.5523 10 10 10Z" fill="#2F2F2F"/>
</svg>
