<svg width="24" height="24" viewBox="0 0 24 24" fill="none" xmlns="http://www.w3.org/2000/svg">
  <path fill-rule="evenodd" clip-rule="evenodd"
        d="M6 9V6H9V9H6ZM5.4 4C4.6268 4 4 4.6268 4 5.4V9.6C4 10.3732 4.6268 11 5.4 11H9.6C10.3732 11 11 10.3732 11 9.6V5.4C11 4.6268 10.3732 4 9.6 4H5.4ZM15 9V6H18V9H15ZM14.4 4C13.6268 4 13 4.6268 13 5.4V9.6C13 10.3732 13.6268 11 14.4 11H18.6C19.3732 11 20 10.3732 20 9.6V5.4C20 4.6268 19.3732 4 18.6 4H14.4ZM6 15V18H9V15H6ZM4 14.4C4 13.6268 4.6268 13 5.4 13H9.6C10.3732 13 11 13.6268 11 14.4V18.6C11 19.3732 10.3732 20 9.6 20H5.4C4.6268 20 4 19.3732 4 18.6V14.4ZM15 18V15H18V18H15ZM14.4 13C13.6268 13 13 13.6268 13 14.4V18.6C13 19.3732 13.6268 20 14.4 20H18.6C19.3732 20 20 19.3732 20 18.6V14.4C20 13.6268 19.3732 13 18.6 13H14.4Z"
        fill="#2F2F2F"/>
</svg>
