<svg width="24" height="24" viewBox="0 0 24 24" fill="none" xmlns="http://www.w3.org/2000/svg">
<path fill-rule="evenodd" clip-rule="evenodd" d="M6 2H18C20.2091 2 22 3.79086 22 6V18C22 20.2091 20.2091 22 18 22H6C3.79086 22 2 20.2091 2 18V6C2 3.79086 3.79086 2 6 2ZM20 6V11.1978L4 14.7534V6C4 4.89543 4.89543 4 6 4H18C19.1046 4 20 4.89543 20 6ZM4 16.8022L20 13.2466V18C20 19.1046 19.1046 20 18 20H6C4.89543 20 4 19.1046 4 18V16.8022ZM6 8C6 9.10457 6.89543 10 8 10C9.10457 10 10 9.10457 10 8C10 6.89543 9.10457 6 8 6C6.89543 6 6 6.89543 6 8Z" fill="#2F2F2F"/>
</svg>
