<svg width="24" height="24" viewBox="0 0 24 24" fill="none" xmlns="http://www.w3.org/2000/svg">
  <path fill-rule="evenodd" clip-rule="evenodd"
        d="M6.44488 16.7111C6.23752 16.827 5.99203 16.8575 5.76195 16.7958C5.53187 16.7342 5.33588 16.5855 5.21675 16.3822L4.76524 15.6178C4.69221 15.5159 4.64177 15.4001 4.61718 15.2778C4.59259 15.1555 4.59441 15.0295 4.62251 14.908C4.65062 14.7864 4.70438 14.6721 4.78031 14.5723C4.85623 14.4725 4.95263 14.3896 5.06324 14.3289L5.79469 13.9111C5.948 13.8216 6.07097 13.6894 6.1481 13.5312C6.22524 13.3731 6.25309 13.196 6.22815 13.0222C6.1018 12.3225 6.1018 11.6064 6.22815 10.9067C6.25309 10.7329 6.22524 10.5558 6.1481 10.3976C6.07097 10.2395 5.948 10.1073 5.79469 10.0178L5.06324 9.6C4.96051 9.54119 4.87059 9.463 4.79863 9.36991C4.72667 9.27682 4.67408 9.17067 4.64388 9.05754C4.61368 8.9444 4.60646 8.82652 4.62263 8.71063C4.63881 8.59475 4.67806 8.48315 4.73814 8.38222L5.18966 7.61778C5.30879 7.41446 5.50477 7.26577 5.73485 7.20416C5.96494 7.14254 6.21043 7.173 6.41779 7.28889L7.14924 7.70667C7.31135 7.79813 7.49829 7.83784 7.68428 7.82032C7.87028 7.80281 8.04618 7.72894 8.18773 7.60889C8.73514 7.15174 9.36241 6.79633 10.0389 6.56C10.2152 6.49936 10.368 6.38646 10.4763 6.23683C10.5847 6.0872 10.6432 5.90819 10.644 5.72444V4.88889C10.644 4.65314 10.7391 4.42705 10.9085 4.26035C11.0778 4.09365 11.3075 4 11.547 4H12.45C12.6895 4 12.9192 4.09365 13.0886 4.26035C13.2579 4.42705 13.3531 4.65314 13.3531 4.88889V5.72444C13.3538 5.90819 13.4124 6.0872 13.5207 6.23683C13.6291 6.38646 13.7819 6.49936 13.9581 6.56C14.6187 6.80113 15.2303 7.15632 15.7642 7.60889C15.9057 7.72894 16.0816 7.80281 16.2676 7.82032C16.4536 7.83784 16.6406 7.79813 16.8027 7.70667L17.5341 7.28889C17.7415 7.173 17.987 7.14254 18.2171 7.20416C18.4471 7.26577 18.6431 7.41446 18.7622 7.61778L19.2138 8.38222C19.2854 8.48629 19.3338 8.60414 19.3558 8.72797C19.3777 8.85181 19.3728 8.97883 19.3412 9.10064C19.3096 9.22244 19.2521 9.33627 19.1726 9.43461C19.093 9.53295 18.9932 9.61356 18.8796 9.67111L18.1482 10.0889C17.9949 10.1784 17.8719 10.3106 17.7948 10.4688C17.7176 10.6269 17.6898 10.804 17.7147 10.9778C17.8411 11.6775 17.8411 12.3936 17.7147 13.0933C17.6898 13.2671 17.7176 13.4442 17.7948 13.6024C17.8719 13.7605 17.9949 13.8927 18.1482 13.9822L18.8796 14.4C18.9824 14.4588 19.0723 14.537 19.1442 14.6301C19.2162 14.7232 19.2688 14.8293 19.299 14.9425C19.3292 15.0556 19.3364 15.1735 19.3202 15.2894C19.3041 15.4053 19.2648 15.5169 19.2047 15.6178L18.7532 16.3822C18.6341 16.5855 18.4381 16.7342 18.208 16.7958C17.9779 16.8575 17.7324 16.827 17.5251 16.7111L16.7936 16.2933C16.6315 16.2019 16.4446 16.1622 16.2586 16.1797C16.0726 16.1972 15.8967 16.2711 15.7551 16.3911C15.2213 16.8437 14.6097 17.1989 13.9491 17.44C13.7729 17.5006 13.6201 17.6135 13.5117 17.7632C13.4034 17.9128 13.3448 18.0918 13.344 18.2756V19.1111C13.344 19.3469 13.2489 19.573 13.0796 19.7397C12.9102 19.9063 12.6805 20 12.441 20H11.538C11.2985 20 11.0688 19.9063 10.8994 19.7397C10.7301 19.573 10.6349 19.3469 10.6349 19.1111V18.2756C10.6342 18.0918 10.5756 17.9128 10.4673 17.7632C10.3589 17.6135 10.2061 17.5006 10.0299 17.44C9.35338 17.2037 8.72611 16.8483 8.1787 16.3911C8.01512 16.2534 7.80696 16.1778 7.59173 16.1778C7.44581 16.1827 7.30327 16.2223 7.17633 16.2933L6.44488 16.7111ZM7.52301 18.3986L7.42872 18.4524L7.42061 18.4569C6.75737 18.8276 5.97607 18.9237 5.24458 18.7278C4.51387 18.5321 3.88187 18.0578 3.49338 17.3971C3.49263 17.3958 3.49189 17.3946 3.49114 17.3933L3.07531 16.6893C2.87236 16.3813 2.72963 16.0362 2.65643 15.6721C2.57568 15.2705 2.58166 14.8565 2.67392 14.4575C2.76616 14.0585 2.94219 13.6851 3.18879 13.3611C3.43091 13.0429 3.73545 12.7797 4.0819 12.5862L4.15459 12.5446C4.12632 12.1583 4.12632 11.7705 4.15459 11.3843L4.06952 11.3357C3.74026 11.1472 3.44992 10.8953 3.21632 10.5931C2.98266 10.2909 2.81062 9.94449 2.71155 9.57338C2.61246 9.20223 2.58868 8.81492 2.64184 8.43414C2.69478 8.05488 2.82279 7.69096 3.01731 7.36304L3.46635 6.60278C3.85484 5.94213 4.48682 5.46791 5.21749 5.27223C5.94898 5.07634 6.73027 5.17237 7.39352 5.54305L7.40163 5.54759L7.51557 5.61266C7.87345 5.36826 8.25089 5.15355 8.64398 4.97059V4.88889C8.64398 4.11243 8.95763 3.37427 9.50547 2.83502C10.0522 2.29682 10.7872 2 11.547 2H12.45C13.2099 2 13.9448 2.29682 14.4916 2.83502C15.0394 3.37426 15.3531 4.11242 15.3531 4.88889V4.97961C15.7317 5.16087 16.0953 5.37175 16.4404 5.61033L16.5503 5.54759L16.5584 5.54305C17.2216 5.17237 18.0029 5.07634 18.7344 5.27223C19.4652 5.46792 20.0972 5.94222 20.4857 6.60297C20.4864 6.60422 20.4871 6.60546 20.4879 6.60671L20.9106 7.32247C21.1167 7.64262 21.2581 8.00139 21.325 8.37867C21.3972 8.78546 21.3808 9.20279 21.2772 9.60252C21.1736 10.0022 20.9856 10.3735 20.7274 10.6926C20.4828 10.9949 20.1808 11.2435 19.8406 11.4255L19.7883 11.4554C19.8166 11.8417 19.8166 12.2295 19.7883 12.6157L19.8734 12.6643C20.2026 12.8528 20.493 13.1047 20.7266 13.4069C20.9602 13.7091 21.1323 14.0555 21.2313 14.4266C21.3304 14.7978 21.3542 15.1851 21.301 15.5659C21.2481 15.9451 21.1201 16.3089 20.9257 16.6368C20.9249 16.6381 20.9241 16.6395 20.9233 16.6409L20.4788 17.3933C20.4781 17.3946 20.4773 17.3959 20.4765 17.3973C20.088 18.0579 19.456 18.5321 18.7254 18.7278C17.9939 18.9237 17.2126 18.8276 16.5494 18.4569L16.5412 18.4524L16.4314 18.3897C16.0863 18.6282 15.7227 18.8391 15.344 19.0204V19.1111C15.344 19.8876 15.0304 20.6257 14.4826 21.165C13.9358 21.7032 13.2008 22 12.441 22H11.538C10.7782 22 10.0432 21.7032 9.49643 21.165C8.9486 20.6257 8.63495 19.8876 8.63495 19.1111V19.0294C8.24788 18.8493 7.876 18.6383 7.52301 18.3986Z"
        fill="#2E312D"/>
  <path
    d="M12 9.5C11.5055 9.5 11.0222 9.64662 10.6111 9.92133C10.2 10.196 9.87952 10.5865 9.6903 11.0433C9.50108 11.5001 9.45157 12.0028 9.54804 12.4877C9.6445 12.9727 9.8826 13.4181 10.2322 13.7678L10.9393 13.0607L10.2322 13.7678C10.5819 14.1174 11.0273 14.3555 11.5123 14.452C11.9972 14.5484 12.4999 14.4989 12.9567 14.3097C13.4135 14.1205 13.804 13.8 14.0787 13.3889C14.3534 12.9778 14.5 12.4945 14.5 12C14.5 11.337 14.2366 10.7011 13.7678 10.2322C13.2989 9.76339 12.663 9.5 12 9.5Z"
    stroke="#2E312D" stroke-width="2"/>
</svg>
