<svg width="24" height="24" viewBox="0 0 24 24" fill="none" xmlns="http://www.w3.org/2000/svg">
<path fill-rule="evenodd" clip-rule="evenodd" d="M16.0546 3.29289C16.4339 2.90237 17.0489 2.90237 17.4282 3.29289L22 8L17.4282 12.7071C17.0489 13.0976 16.4339 13.0976 16.0546 12.7071C15.6753 12.3166 15.6753 11.6834 16.0546 11.2929L18.2816 9H8.97126C8.43485 9 8 8.55228 8 8C8 7.44772 8.43485 7 8.97126 7H18.2816L16.0546 4.70711C15.6753 4.31658 15.6753 3.68342 16.0546 3.29289Z" fill="#2E312D"/>
<path fill-rule="evenodd" clip-rule="evenodd" d="M7.94541 11.2929C7.56611 10.9024 6.95114 10.9024 6.57184 11.2929L2 16L6.57184 20.7071C6.95114 21.0976 7.56611 21.0976 7.94541 20.7071C8.32472 20.3166 8.32472 19.6834 7.94541 19.2929L5.71841 17H15.0287C15.5652 17 16 16.5523 16 16C16 15.4477 15.5652 15 15.0287 15H5.71841L7.94541 12.7071C8.32472 12.3166 8.32472 11.6834 7.94541 11.2929Z" fill="#2E312D"/>
</svg>
