<svg width="22" height="22" viewBox="0 0 22 22" fill="none" xmlns="http://www.w3.org/2000/svg">
  <path fill-rule="evenodd" clip-rule="evenodd"
        d="M11.9491 2.44294C11.6057 1.6297 10.395 1.6297 10.0515 2.44294L8.06637 7.14362C7.92012 7.48993 7.57831 7.72607 7.18674 7.75132L1.87178 8.094C0.952271 8.15329 0.578141 9.2482 1.28539 9.81009L5.37346 13.058C5.67464 13.2972 5.8052 13.6793 5.70945 14.0412L4.40978 18.9537C4.18493 19.8036 5.16442 20.4803 5.94497 20.0143L10.4567 17.3209C10.7891 17.1225 11.2116 17.1225 11.544 17.3209L16.0557 20.0143C16.8362 20.4803 17.8157 19.8036 17.5909 18.9537L16.2912 14.0412C16.1955 13.6793 16.326 13.2972 16.6272 13.058L20.7153 9.81009C21.4225 9.2482 21.0484 8.15329 20.1289 8.094L14.8139 7.75132C14.4223 7.72607 14.0805 7.48993 13.9343 7.14362L11.9491 2.44294Z"
        fill="white"/>
</svg>
