<svg width="22" height="22" viewBox="0 0 22 22" fill="none" xmlns="http://www.w3.org/2000/svg">
  <path fill-rule="evenodd" clip-rule="evenodd"
        d="M10.0962 13.8145C10.0962 14.3208 10.5066 14.7312 11.0128 14.7312C11.5191 14.7312 11.9295 14.3208 11.9295 13.8145V4.89727L13.9297 6.89742C14.2876 7.2554 14.868 7.2554 15.226 6.89742C15.584 6.53944 15.584 5.95904 15.226 5.60106L11.661 2.03606C11.5724 1.94747 11.4702 1.88081 11.3611 1.83607C11.2582 1.79375 11.1459 1.76963 11.0282 1.7677L11.027 1.76768C11.0176 1.76754 11.0078 1.76754 10.9983 1.76769C10.8803 1.76952 10.7677 1.79366 10.6645 1.83607C10.5554 1.88081 10.4532 1.94747 10.3647 2.03606L6.79966 5.60106C6.44168 5.95904 6.44168 6.53944 6.79966 6.89742C7.15764 7.2554 7.73804 7.2554 8.09602 6.89742L10.0962 4.89727V13.8145ZM5.04102 10.0827C4.53476 10.0827 4.12435 10.4931 4.12435 10.9994V17.8744C4.12435 18.3806 4.53475 18.7911 5.04102 18.7911H16.4993C17.0056 18.7911 17.416 18.3806 17.416 17.8744V10.9994C17.416 10.4931 17.0056 10.0827 16.4993 10.0827H14.666C14.1598 10.0827 13.7493 9.67232 13.7493 9.16606C13.7493 8.65979 14.1598 8.24939 14.666 8.24939H16.4993C18.0181 8.24939 19.2493 9.48061 19.2493 10.9994V17.8744C19.2493 19.3932 18.0181 20.6244 16.4993 20.6244H5.04102C3.52223 20.6244 2.29102 19.3932 2.29102 17.8744V10.9994C2.29102 9.48061 3.52223 8.24939 5.04102 8.24939H7.33268C7.83894 8.24939 8.24935 8.65979 8.24935 9.16606C8.24935 9.67232 7.83894 10.0827 7.33268 10.0827H5.04102Z"
        fill="#2F2F2F"/>
</svg>
