<svg width="24" height="24" viewBox="0 0 24 24" fill="none" xmlns="http://www.w3.org/2000/svg">
  <path fill-rule="evenodd" clip-rule="evenodd"
        d="M12 4C10.2626 4 8.91669 5.34913 8.91669 6.9375C8.91669 8.52587 10.2626 9.875 12 9.875C13.7375 9.875 15.0834 8.52587 15.0834 6.9375C15.0834 5.34913 13.7375 4 12 4ZM6.91669 6.9375C6.91669 4.17663 9.22716 2 12 2C14.7729 2 17.0834 4.17663 17.0834 6.9375C17.0834 9.69837 14.7729 11.875 12 11.875C9.22716 11.875 6.91669 9.69837 6.91669 6.9375ZM14.6255 15.2151C12.8861 14.9283 11.1139 14.9283 9.37449 15.2151L9.16672 15.2493L9.00404 14.2627L9.16671 15.2493C7.36598 15.5462 6 17.1642 6 19.1115C6 19.6331 6.40116 20 6.82813 20H17.1719C17.5988 20 18 19.6331 18 19.1115C18 17.1642 16.634 15.5462 14.8333 15.2493L14.6255 15.2151ZM9.04915 13.2417C11.004 12.9194 12.996 12.9194 14.9508 13.2417L15.1586 13.276C17.9713 13.7397 20 16.2326 20 19.1115C20 20.6759 18.7642 22 17.1719 22H6.82813C5.2358 22 4 20.6759 4 19.1115C4 16.2326 6.02867 13.7397 8.84136 13.276L9.04914 13.2417L9.21182 14.2284L9.04915 13.2417Z"
        fill="#2F2F2F"/>
</svg>
