<svg width="24" height="24" viewBox="0 0 24 24" fill="none" xmlns="http://www.w3.org/2000/svg">
  <path
    d="M11.2144 9.52515C10.9215 9.23224 10.9215 8.75739 11.2144 8.46448C11.5073 8.17157 11.9822 8.17157 12.275 8.46448L14.75 10.9394L17.2249 8.46448C17.5177 8.17157 17.9926 8.17157 18.2855 8.46448C18.5784 8.75732 18.5784 9.23224 18.2855 9.52515L15.8105 12L18.2855 14.4749C18.5784 14.7678 18.5784 15.2427 18.2855 15.5355C17.9926 15.8284 17.5177 15.8284 17.2249 15.5355L14.75 13.0607L12.275 15.5355C11.9822 15.8284 11.5073 15.8284 11.2145 15.5355C10.9215 15.2426 10.9215 14.7678 11.2145 14.4749L13.6893 12.0001L11.2144 9.52515Z"
    fill="black"/>
  <path fill-rule="evenodd" clip-rule="evenodd"
        d="M8.12134 4.37866L0.5 12L8.12134 19.6213C8.68396 20.184 9.44702 20.5 10.2427 20.5H20.5C22.1569 20.5 23.5 19.1569 23.5 17.5V6.5C23.5 4.84314 22.1569 3.5 20.5 3.5H10.2427C9.44702 3.5 8.68396 3.8161 8.12134 4.37866ZM20.5 19.2H10.2427C9.79175 19.2 9.35938 19.0209 9.04053 18.7021L2.3385 12L9.04053 5.29791C9.35938 4.97913 9.79175 4.79999 10.2427 4.79999H20.5C21.4388 4.79999 22.2 5.5611 22.2 6.5V17.5C22.2 18.4389 21.4388 19.2 20.5 19.2Z"
        fill="black"/>
</svg>
