<svg width="24" height="24" viewBox="0 0 24 24" fill="none" xmlns="http://www.w3.org/2000/svg">
<path fill-rule="evenodd" clip-rule="evenodd" d="M2.5 6.25C2.5 6.80228 2.94772 7.25 3.5 7.25H20.5C21.0523 7.25 21.5 6.80228 21.5 6.25C21.5 5.69772 21.0523 5.25 20.5 5.25H3.5C2.94772 5.25 2.5 5.69772 2.5 6.25ZM2.5 9.25C2.5 9.80228 2.94772 10.25 3.5 10.25H11.5C12.0523 10.25 12.5 9.80228 12.5 9.25C12.5 8.69772 12.0523 8.25 11.5 8.25H3.5C2.94772 8.25 2.5 8.69772 2.5 9.25ZM4.5 13.75V16.75H7.5V13.75H4.5ZM2.5 13.15C2.5 12.3768 3.1268 11.75 3.9 11.75H8.1C8.8732 11.75 9.5 12.3768 9.5 13.15V17.35C9.5 18.1232 8.8732 18.75 8.1 18.75H3.9C3.1268 18.75 2.5 18.1232 2.5 17.35V13.15ZM12.5 16.75V13.75H15.5V16.75H12.5ZM11.9 11.75C11.1268 11.75 10.5 12.3768 10.5 13.15V17.35C10.5 18.1232 11.1268 18.75 11.9 18.75H16.1C16.8732 18.75 17.5 18.1232 17.5 17.35V13.15C17.5 12.3768 16.8732 11.75 16.1 11.75H11.9Z" fill="#2F2F2F"/>
</svg>
