<svg width="24" height="24" viewBox="0 0 24 24" fill="none" xmlns="http://www.w3.org/2000/svg">
<path fill-rule="evenodd" clip-rule="evenodd" d="M2 12C2 17.5228 6.47715 22 12 22C17.5228 22 22 17.5228 22 12C22 6.47715 17.5228 2 12 2C6.47715 2 2 6.47715 2 12ZM20 12C20 16.4183 16.4183 20 12 20C7.58172 20 4 16.4183 4 12C4 7.58172 7.58172 4 12 4C16.4183 4 20 7.58172 20 12ZM11 6C11 6.55228 11.4477 7 12 7C12.5523 7 13 6.55228 13 6C13 5.44772 12.5523 5 12 5C11.4477 5 11 5.44772 11 6ZM12 19C11.4477 19 11 18.5523 11 18C11 17.4477 11.4477 17 12 17C12.5523 17 13 17.4477 13 18C13 18.5523 12.5523 19 12 19ZM17 12C17 12.5523 17.4477 13 18 13C18.5523 13 19 12.5523 19 12C19 11.4477 18.5523 11 18 11C17.4477 11 17 11.4477 17 12ZM6 13C5.44772 13 5 12.5523 5 12C5 11.4477 5.44772 11 6 11C6.55228 11 7 11.4477 7 12C7 12.5523 6.55228 13 6 13ZM15.5 8C15.5 8.55228 15.9477 9 16.5 9C17.0523 9 17.5 8.55228 17.5 8C17.5 7.44772 17.0523 7 16.5 7C15.9477 7 15.5 7.44772 15.5 8ZM7.5 9C6.94772 9 6.5 8.55228 6.5 8C6.5 7.44772 6.94772 7 7.5 7C8.05228 7 8.5 7.44772 8.5 8C8.5 8.55228 8.05228 9 7.5 9ZM15.5 16C15.5 16.5523 15.9477 17 16.5 17C17.0523 17 17.5 16.5523 17.5 16C17.5 15.4477 17.0523 15 16.5 15C15.9477 15 15.5 15.4477 15.5 16ZM7.5 17C6.94772 17 6.5 16.5523 6.5 16C6.5 15.4477 6.94772 15 7.5 15C8.05228 15 8.5 15.4477 8.5 16C8.5 16.5523 8.05228 17 7.5 17ZM14 12C14 13.1046 13.1046 14 12 14C10.8954 14 10 13.1046 10 12C10 10.8954 10.8954 10 12 10C13.1046 10 14 10.8954 14 12ZM16 12C16 14.2091 14.2091 16 12 16C9.79086 16 8 14.2091 8 12C8 9.79086 9.79086 8 12 8C14.2091 8 16 9.79086 16 12Z" fill="#2F2F2F"/>
</svg>
