<svg width="24" height="24" viewBox="0 0 24 24" fill="none" xmlns="http://www.w3.org/2000/svg">
<path fill-rule="evenodd" clip-rule="evenodd" d="M4 4.5L4 6.5H6L6 4.5L4 4.5ZM2 6.5C2 7.60457 2.89543 8.5 4 8.5H6C7.10457 8.5 8 7.60457 8 6.5L8 4.5C8 3.39543 7.10457 2.5 6 2.5H4C2.89543 2.5 2 3.39543 2 4.5V6.5ZM11 4.5L11 6.5H13L13 4.5L11 4.5ZM9 6.5C9 7.60457 9.89543 8.5 11 8.5H13C14.1046 8.5 15 7.60457 15 6.5L15 4.5C15 3.39543 14.1046 2.5 13 2.5H11C9.89543 2.5 9 3.39543 9 4.5V6.5ZM18 6.5V4.5L20 4.5V6.5H18ZM18 8.5C16.8954 8.5 16 7.60457 16 6.5L16 4.5C16 3.39543 16.8954 2.5 18 2.5H20C21.1046 2.5 22 3.39543 22 4.5V6.5C22 7.60457 21.1046 8.5 20 8.5H18ZM9 14.5L9 19.5L15 19.5L15 14.5L9 14.5ZM7 19.5C7 20.6046 7.89543 21.5 9 21.5L15 21.5C16.1046 21.5 17 20.6046 17 19.5V18C17.1991 18 17.3946 17.9805 17.5844 17.9429L17.1963 15.9809C17.1336 15.9933 17.0681 16 17 16L17 14.5C17 13.3954 16.1046 12.5 15 12.5L9 12.5C7.89543 12.5 7 13.3954 7 14.5L7 16C6.93193 16 6.86642 15.9933 6.80374 15.9809L6.41561 17.9429C6.60542 17.9805 6.80092 18 7 18L7 19.5ZM6.01906 15.1963C6.00666 15.1336 6 15.0681 6 15V14.5625H4V15C4 15.1991 4.01953 15.3946 4.05708 15.5844L6.01906 15.1963ZM6 13.6875V12.8125H4L4 13.6875H6ZM6 11.9375V11.0625H4L4 11.9375H6ZM6 10.1875V9.3125L4 9.3125L4 10.1875L6 10.1875ZM6.44509 15.8322C6.33561 15.7589 6.24113 15.6644 6.16784 15.5549L4.5059 16.6676C4.72464 16.9943 5.00573 17.2754 5.33245 17.4941L6.44509 15.8322ZM19.4941 16.6676C19.2754 16.9943 18.9943 17.2754 18.6676 17.4941L17.5549 15.8322C17.6644 15.7589 17.7589 15.6644 17.8322 15.5549L19.4941 16.6676ZM20 15C20 15.1991 19.9805 15.3946 19.9429 15.5844L17.9809 15.1963C17.9933 15.1336 18 15.0681 18 15V14.5312H20V15ZM20 12.6562V13.5938H18V12.6562H20ZM20 10.7812V11.7188H18V10.7812H20ZM20 8.90625V9.84375L18 9.84375V8.90625L20 8.90625ZM13 12V11H11V12H13ZM13 10L13 9L11 9L11 10L13 10Z" fill="#2F2F2F"/>
</svg>
