<svg width="16" height="16" viewBox="0 0 16 16" fill="none" xmlns="http://www.w3.org/2000/svg">
<path fill-rule="evenodd" clip-rule="evenodd" d="M11.0707 3.04366C10.5748 2.97756 10.1053 2.72951 9.7426 2.32654L9.27279 1.80454C8.56985 1.02349 7.43015 1.02349 6.72721 1.80454L6.2574 2.32654C5.72349 2.91978 4.95807 3.17728 4.21767 3.01274L2.78944 2.69536L2.78943 2.69536C2.72514 2.6835 2.72514 2.6835 2.66 2.68112C2.29549 2.68112 2 3.00944 2 3.41445V7.33313C2 8.75819 2.3425 10.0142 3.017 11.0973L3.92003 10.1943C3.43726 9.35577 3.2 8.40309 3.2 7.33313V4.14633L3.98233 4.32019C5.11616 4.57215 6.28831 4.17782 7.10593 3.26935L7.57574 2.74735C7.81005 2.487 8.18995 2.487 8.42427 2.74735L8.89407 3.26935C9.21929 3.6307 9.60059 3.91071 10.0133 4.10106L11.0707 3.04366ZM14 3.88556L12.8 5.08556V7.33313C12.8 10.0713 11.2461 12.0415 8 13.2956C7.13044 12.9596 6.38231 12.5723 5.75295 12.1326L4.83297 13.0526C5.65224 13.674 6.64605 14.2011 7.81026 14.6323L8 14.7025L8.18974 14.6323C12.0144 13.2157 14 10.7643 14 7.33313V3.88556Z" fill="white"/>
<path fill-rule="evenodd" clip-rule="evenodd" d="M13.9701 2.02876C14.2305 2.28911 14.2305 2.71122 13.9701 2.97157L2.9701 13.9716C2.70975 14.2319 2.28764 14.2319 2.02729 13.9716C1.76694 13.7112 1.76694 13.2891 2.02729 13.0288L13.0273 2.02876C13.2876 1.76841 13.7098 1.76841 13.9701 2.02876Z" fill="white"/>
</svg>
