<svg width="24" height="24" viewBox="0 0 24 24" fill="none" xmlns="http://www.w3.org/2000/svg">
  <path fill-rule="evenodd" clip-rule="evenodd" d="M17 19.9H7V18.1H17V19.9Z" fill="#2F2F2F"/>
  <path fill-rule="evenodd" clip-rule="evenodd" d="M19.9 7V17H18.1V7H19.9Z" fill="#2F2F2F"/>
  <path fill-rule="evenodd" clip-rule="evenodd" d="M7 4.1H17V5.9H7V4.1Z" fill="#2F2F2F"/>
  <path fill-rule="evenodd" clip-rule="evenodd" d="M4.10001 17V7H5.90001V17H4.10001Z" fill="#2F2F2F"/>
  <path fill-rule="evenodd" clip-rule="evenodd"
        d="M8.86362 10.1364L5.86362 7.1364L7.13641 5.86361L10.1364 8.86361L8.86362 10.1364Z" fill="#2F2F2F"/>
  <path fill-rule="evenodd" clip-rule="evenodd"
        d="M13.8636 8.86361L16.8636 5.86361L18.1364 7.1364L15.1364 10.1364L13.8636 8.86361Z" fill="#2F2F2F"/>
  <path fill-rule="evenodd" clip-rule="evenodd"
        d="M10.1364 15.1364L7.13641 18.1364L5.86362 16.8636L8.86362 13.8636L10.1364 15.1364Z" fill="#2F2F2F"/>
  <path fill-rule="evenodd" clip-rule="evenodd"
        d="M15.1364 13.8636L17.6364 16.3636L16.3636 17.6364L13.8636 15.1364L15.1364 13.8636Z" fill="#2F2F2F"/>
  <path fill-rule="evenodd" clip-rule="evenodd"
        d="M5 6.2C5.66274 6.2 6.2 5.66274 6.2 5C6.2 4.33726 5.66274 3.8 5 3.8C4.33726 3.8 3.8 4.33726 3.8 5C3.8 5.66274 4.33726 6.2 5 6.2ZM5 8C6.65685 8 8 6.65685 8 5C8 3.34315 6.65685 2 5 2C3.34315 2 2 3.34315 2 5C2 6.65685 3.34315 8 5 8Z"
        fill="#2F2F2F"/>
  <path fill-rule="evenodd" clip-rule="evenodd"
        d="M5 20.2C5.66274 20.2 6.2 19.6627 6.2 19C6.2 18.3373 5.66274 17.8 5 17.8C4.33726 17.8 3.8 18.3373 3.8 19C3.8 19.6627 4.33726 20.2 5 20.2ZM5 22C6.65685 22 8 20.6569 8 19C8 17.3431 6.65685 16 5 16C3.34315 16 2 17.3431 2 19C2 20.6569 3.34315 22 5 22Z"
        fill="#2F2F2F"/>
  <path fill-rule="evenodd" clip-rule="evenodd"
        d="M19 6.2C19.6627 6.2 20.2 5.66274 20.2 5C20.2 4.33726 19.6627 3.8 19 3.8C18.3373 3.8 17.8 4.33726 17.8 5C17.8 5.66274 18.3373 6.2 19 6.2ZM19 8C20.6569 8 22 6.65685 22 5C22 3.34315 20.6569 2 19 2C17.3431 2 16 3.34315 16 5C16 6.65685 17.3431 8 19 8Z"
        fill="#2F2F2F"/>
  <path fill-rule="evenodd" clip-rule="evenodd"
        d="M19 20.2C19.6627 20.2 20.2 19.6627 20.2 19C20.2 18.3373 19.6627 17.8 19 17.8C18.3373 17.8 17.8 18.3373 17.8 19C17.8 19.6627 18.3373 20.2 19 20.2ZM19 22C20.6569 22 22 20.6569 22 19C22 17.3431 20.6569 16 19 16C17.3431 16 16 17.3431 16 19C16 20.6569 17.3431 22 19 22Z"
        fill="#2F2F2F"/>
  <path fill-rule="evenodd" clip-rule="evenodd"
        d="M12 14.2C13.215 14.2 14.2 13.215 14.2 12C14.2 10.785 13.215 9.8 12 9.8C10.785 9.8 9.8 10.785 9.8 12C9.8 13.215 10.785 14.2 12 14.2ZM12 16C14.2091 16 16 14.2091 16 12C16 9.79086 14.2091 8 12 8C9.79086 8 8 9.79086 8 12C8 14.2091 9.79086 16 12 16Z"
        fill="#2F2F2F"/>
</svg>
