<svg width="24" height="24" viewBox="0 0 24 24" fill="none" xmlns="http://www.w3.org/2000/svg">
  <path fill-rule="evenodd" clip-rule="evenodd"
        d="M16.6193 11.5H15.3807L13 17.5H14.4284L14.9045 16.2461H17.1903L17.5716 17.5H19L16.6193 11.5ZM15.1902 15.2616L16.0476 13.0232L16.8083 15.2616H15.1902Z"
        fill="#2F2F2F"/>
  <path fill-rule="evenodd" clip-rule="evenodd"
        d="M6.89308 8.33449V7H8.10692V8.33449H9.92769V9.66898H9.1477C9.03997 10.0616 8.77244 10.5094 8.37245 11.0608C8.73681 11.308 9.23125 11.5753 10 11.6759L9.85538 13C8.67152 12.845 7.94611 12.3652 7.49881 12.0161C7.05179 12.3645 6.32747 12.8451 5.14462 13L5 11.6759C6.17989 11.5214 6.89189 10.9134 7.11119 10.7129C7.49954 10.3571 7.72244 9.98951 7.86866 9.66898H5.07231V8.33449H6.89308Z"
        fill="#2F2F2F"/>
  <path fill-rule="evenodd" clip-rule="evenodd"
        d="M11.8333 7H18C20.2091 7 22 8.79086 22 11V18C22 20.2091 20.2091 22 18 22H13C10.7909 22 9 20.2091 9 18V17H11V18C11 19.1046 11.8954 20 13 20H18C19.1046 20 20 19.1046 20 18V11C20 9.89543 19.1046 9 18 9H11.8333V7Z"
        fill="#2F2F2F"/>
  <path fill-rule="evenodd" clip-rule="evenodd"
        d="M6 4C4.89543 4 4 4.89543 4 6V14C4 15.1046 4.89543 16 6 16H8.86197C9.88793 16 10.7475 15.2237 10.8516 14.203L11.668 6.20303C11.7882 5.02429 10.8632 4 9.6783 4H6ZM2 6C2 3.79086 3.79086 2 6 2H9.6783C12.048 2 13.8982 4.04858 13.6576 6.40605L12.8413 14.4061C12.633 16.4474 10.9139 18 8.86197 18H6C3.79086 18 2 16.2091 2 14V6Z"
        fill="#2F2F2F"/>
</svg>
