<svg width="22" height="22" viewBox="0 0 22 22" fill="none" xmlns="http://www.w3.org/2000/svg">
  <path fill-rule="evenodd" clip-rule="evenodd"
        d="M11.2089 1.58391C11.5994 1.19338 12.2326 1.19338 12.6231 1.58391L15.3731 4.33391C15.7636 4.72443 15.7636 5.3576 15.3731 5.74812L12.6231 8.49812C12.2326 8.88865 11.5994 8.88865 11.2089 8.49812C10.8184 8.1076 10.8184 7.47443 11.2089 7.08391L12.2518 6.04102H10.9993C7.50154 6.04102 4.66602 8.87655 4.66602 12.3743C4.66602 15.8722 7.50154 18.7077 10.9993 18.7077C14.4972 18.7077 17.3327 15.8722 17.3327 12.3743C17.3327 11.8221 17.7804 11.3743 18.3327 11.3743C18.885 11.3743 19.3327 11.8221 19.3327 12.3743C19.3327 16.9767 15.6017 20.7077 10.9993 20.7077C6.39698 20.7077 2.66602 16.9767 2.66602 12.3743C2.66602 7.77198 6.39698 4.04102 10.9993 4.04102H12.2518L11.2089 2.99812C10.8184 2.6076 10.8184 1.97443 11.2089 1.58391Z"
        fill="#2F2F2F"/>
</svg>
