<svg width="24" height="24" viewBox="0 0 24 24" fill="none" xmlns="http://www.w3.org/2000/svg">
  <path fill-rule="evenodd" clip-rule="evenodd"
        d="M6.20515 2.78549C6.75064 2.24651 7.54518 2 8.53545 2H19.4629C20.4574 2 21.2523 2.24635 21.7969 2.78572C22.342 3.32559 22.589 4.11213 22.589 5.08981V18.9192C22.589 19.8969 22.3419 20.6815 21.7964 21.2193C21.2516 21.7563 20.4568 22 19.4629 22H4.42742C3.46298 22 2.69473 21.755 2.16978 21.2248C1.64533 20.6951 1.41016 19.9276 1.41016 18.9828V11.1204C1.41016 10.5206 1.60092 10.0138 1.98329 9.65902C2.36278 9.30693 2.89616 9.1369 3.52058 9.1369H5.40936V5.08981C5.40936 4.11145 5.65905 3.32507 6.20515 2.78549ZM7.71223 4.29834C7.53987 4.4707 7.42656 4.7481 7.42656 5.17143V18.892C7.42656 19.2887 7.36885 19.6518 7.25797 19.9828H19.4357C19.8422 19.9828 20.1152 19.8756 20.2871 19.7053C20.4586 19.5354 20.5719 19.2609 20.5719 18.8376V5.17143C20.5719 4.7481 20.4586 4.47071 20.2862 4.29834C20.1138 4.12593 19.8409 4.0172 19.4357 4.0172H8.56265C8.15756 4.0172 7.88465 4.12592 7.71223 4.29834ZM8.65587 7.11209C8.65587 6.6381 9.03753 6.28939 9.50578 6.28939H18.5107C18.9729 6.28939 19.3516 6.64096 19.3516 7.11209C19.3516 7.5775 18.9878 7.96198 18.5107 7.96198H9.50578C9.02257 7.96198 8.65587 7.58044 8.65587 7.11209ZM8.65587 10.3223C8.65587 9.84814 9.0284 9.4815 9.50578 9.4815H18.5107C18.982 9.4815 19.3516 9.85106 19.3516 10.3223C19.3516 10.7875 18.979 11.1541 18.5107 11.1541H9.50578C9.0314 11.1541 8.65587 10.7904 8.65587 10.3223ZM3.48498 11.2121C3.4595 11.2369 3.42735 11.2892 3.42735 11.4015V18.9828C3.42735 19.553 3.86356 19.9828 4.42742 19.9828C4.98223 19.9828 5.40936 19.5802 5.40936 18.9828V11.1541H3.68381C3.56776 11.1541 3.51147 11.1863 3.48498 11.2121ZM8.65587 13.8227C8.65587 13.3487 9.03753 13 9.50578 13H18.5107C18.9729 13 19.3516 13.3516 19.3516 13.8227C19.3516 14.2881 18.9878 14.6726 18.5107 14.6726H9.50578C9.02257 14.6726 8.65587 14.291 8.65587 13.8227ZM9.50578 16.1921C9.0284 16.1921 8.65587 16.5588 8.65587 17.0329C8.65587 17.501 9.0314 17.8647 9.50578 17.8647H18.5107C18.979 17.8647 19.3516 17.4981 19.3516 17.0329C19.3516 16.5617 18.982 16.1921 18.5107 16.1921H9.50578Z"
        fill="#2F2F2F"/>
</svg>
