<svg width="20" height="20" viewBox="0 0 20 20" fill="none" xmlns="http://www.w3.org/2000/svg">
<path fill-rule="evenodd" clip-rule="evenodd" d="M2.46885 19.6965L3.23496 17.849C3.468 17.9457 3.72513 18 4 18H5.5V20H4C3.45763 20 2.94048 19.8921 2.46885 19.6965ZM14.5 20V18H16C16.2749 18 16.532 17.9457 16.765 17.849L17.5312 19.6965C17.0595 19.8921 16.5424 20 16 20H14.5ZM20 5.5H18V4C18 3.72513 17.9457 3.468 17.849 3.23496L19.6965 2.46885C19.8921 2.94048 20 3.45763 20 4V5.5ZM5.5 0H4C3.45763 0 2.94048 0.107945 2.46885 0.303522L3.23496 2.15097C3.468 2.05434 3.72513 2 4 2H5.5V0ZM0 14.5H2V16C2 16.2749 2.05434 16.532 2.15097 16.765L0.303522 17.5312C0.107945 17.0595 0 16.5424 0 16V14.5ZM0 11.5H2V8.5H0V11.5ZM0 5.5H2V4C2 3.72513 2.05434 3.468 2.15097 3.23496L0.303522 2.46885C0.107945 2.94048 0 3.45763 0 4V5.5ZM8.5 0V2H11.5V0H8.5ZM14.5 0V2H16C16.2749 2 16.532 2.05434 16.765 2.15097L17.5312 0.303522C17.0595 0.107945 16.5424 0 16 0H14.5ZM20 8.5H18V11.5H20V8.5ZM20 14.5H18V16C18 16.2749 17.9457 16.532 17.849 16.765L19.6965 17.5312C19.8921 17.0595 20 16.5424 20 16V14.5ZM11.5 20V18H8.5V20H11.5Z" fill="#CCCDD2"/>
</svg>
