<svg width="24" height="24" viewBox="0 0 24 24" fill="none" xmlns="http://www.w3.org/2000/svg">
<g id="Swap vert">
<g id="Icon">
<path d="M13.7418 6.70274C14.089 7.04987 14.6518 7.04987 14.9989 6.70274L15.8519 5.8498L15.8519 17.926C15.8519 18.417 16.2498 18.8149 16.7407 18.8149C17.2317 18.8149 17.6296 18.417 17.6296 17.926L17.6296 5.8498L18.4826 6.70274C18.8297 7.04987 19.3925 7.04987 19.7396 6.70274C20.0868 6.35561 20.0868 5.79279 19.7396 5.44566L17.3693 3.07529C17.0221 2.72816 16.4593 2.72816 16.1122 3.07529L13.7418 5.44566C13.3947 5.79279 13.3947 6.35561 13.7418 6.70274Z" fill="#01B26E"/>
<path d="M8.14815 18.1505L9.00109 17.2975C9.34822 16.9504 9.91104 16.9504 10.2582 17.2975C10.6053 17.6446 10.6053 18.2075 10.2582 18.5546L7.8878 20.925C7.54067 21.2721 6.97785 21.2721 6.63072 20.925L4.26035 18.5546C3.91322 18.2075 3.91322 17.6446 4.26035 17.2975C4.60748 16.9504 5.1703 16.9504 5.51743 17.2975L6.37037 18.1505L6.37037 6.0742C6.37037 5.58328 6.76834 5.18531 7.25926 5.18531C7.75018 5.18531 8.14815 5.58328 8.14815 6.0742L8.14815 18.1505Z" fill="#01B26E"/>
</g>
</g>
</svg>
