<svg width="24" height="24" viewBox="0 0 24 24" fill="none" xmlns="http://www.w3.org/2000/svg">
<path fill-rule="evenodd" clip-rule="evenodd" d="M15 9.5V4.5L9 4.5L9 9.5H15ZM17 4.5C17 3.39543 16.1046 2.5 15 2.5H9C7.89543 2.5 7 3.39543 7 4.5V6C5.34315 6 4 7.34315 4 9L4 15.5C2.89543 15.5 2 16.3954 2 17.5V19.5C2 20.6046 2.89543 21.5 4 21.5H6C7.10457 21.5 8 20.6046 8 19.5V17.5C8 16.3954 7.10457 15.5 6 15.5L6 9C6 8.44772 6.44772 8 7 8L7 9.5C7 10.6046 7.89543 11.5 9 11.5H11V15.5C9.89543 15.5 9 16.3954 9 17.5V19.5C9 20.6046 9.89543 21.5 11 21.5H13C14.1046 21.5 15 20.6046 15 19.5V17.5C15 16.3954 14.1046 15.5 13 15.5V11.5H15C16.1046 11.5 17 10.6046 17 9.5V8C17.5523 8 18 8.44772 18 9V15.5C16.8954 15.5 16 16.3954 16 17.5V19.5C16 20.6046 16.8954 21.5 18 21.5H20C21.1046 21.5 22 20.6046 22 19.5V17.5C22 16.3954 21.1046 15.5 20 15.5V9C20 7.34315 18.6569 6 17 6V4.5ZM6 17.5L6 19.5H4V17.5H6ZM13 19.5V17.5H11V19.5H13ZM20 19.5V17.5H18V19.5H20Z" fill="#2F2F2F"/>
</svg>
