<svg width="24" height="24" viewBox="0 0 24 24" fill="none" xmlns="http://www.w3.org/2000/svg">
<path fill-rule="evenodd" clip-rule="evenodd" d="M9 4V9H4L4 4L9 4ZM9 2C10.1046 2 11 2.89543 11 4V9C11 10.1046 10.1046 11 9 11H4C2.89543 11 2 10.1046 2 9V4C2 2.89543 2.89543 2 4 2H9ZM20 15V20H15V15H20ZM20 13C21.1046 13 22 13.8954 22 15V20C22 21.1046 21.1046 22 20 22H15C13.8954 22 13 21.1046 13 20V15C13 13.8954 13.8954 13 15 13H20ZM12.4375 7H12V5H12.4375V7ZM14.1875 7H13.3125V5H14.1875V7ZM15.5 7H15.0625V5H15.5C15.6991 5 15.8946 5.01953 16.0844 5.05708L15.6963 7.01906C15.6336 7.00666 15.5681 7 15.5 7ZM16.3322 7.44509C16.2589 7.33561 16.1644 7.24113 16.0549 7.16784L17.1676 5.5059C17.4943 5.72464 17.7754 6.00573 17.9941 6.33245L16.3322 7.44509ZM16.5 8C16.5 7.93193 16.4933 7.86642 16.4809 7.80375L18.4429 7.41561C18.4805 7.60542 18.5 7.80092 18.5 8V8.5H16.5V8ZM16.5 10.5V9.5H18.5V10.5H16.5ZM16.5 12V11.5H18.5V12H16.5ZM12 17H11.5625V19H12V17ZM10.6875 17H9.8125V19H10.6875V17ZM8.9375 17H8.5C8.43193 17 8.36642 16.9933 8.30375 16.9809L7.91561 18.9429C8.10542 18.9805 8.30092 19 8.5 19H8.9375V17ZM7.94509 16.8322C7.83561 16.7589 7.74113 16.6644 7.66784 16.5549L6.0059 17.6676C6.22464 17.9943 6.50573 18.2754 6.83245 18.4941L7.94509 16.8322ZM7.51906 16.1963C7.50666 16.1336 7.5 16.0681 7.5 16V15.5L5.5 15.5V16C5.5 16.1991 5.51953 16.3946 5.55708 16.5844L7.51906 16.1963ZM7.5 14.5V13.5L5.5 13.5V14.5L7.5 14.5ZM7.5 12.5V12L5.5 12L5.5 12.5L7.5 12.5Z" fill="#2F2F2F"/>
</svg>
