<svg width="24" height="24" viewBox="0 0 24 24" fill="none" xmlns="http://www.w3.org/2000/svg">
<path fill-rule="evenodd" clip-rule="evenodd" d="M7 18.7105C7 19.1465 6.55229 19.5 6 19.5C5.44772 19.5 5 19.1465 5 18.7105L5 5.28947C5 4.85346 5.44771 4.5 6 4.5C6.55228 4.5 7 4.85346 7 5.28947L7 18.7105Z" fill="white"/>
<path fill-rule="evenodd" clip-rule="evenodd" d="M13 18.7105C13 19.1465 12.5523 19.5 12 19.5C11.4477 19.5 11 19.1465 11 18.7105L11 5.28947C11 4.85346 11.4477 4.5 12 4.5C12.5523 4.5 13 4.85346 13 5.28947L13 18.7105Z" fill="white"/>
<path fill-rule="evenodd" clip-rule="evenodd" d="M19 18.7105C19 19.1465 18.5523 19.5 18 19.5C17.4477 19.5 17 19.1465 17 18.7105L17 5.28947C17 4.85346 17.4477 4.5 18 4.5C18.5523 4.5 19 4.85346 19 5.28947L19 18.7105Z" fill="white"/>
</svg>
