<svg width="24" height="24" viewBox="0 0 24 24" fill="none" xmlns="http://www.w3.org/2000/svg">
<path fill-rule="evenodd" clip-rule="evenodd" d="M2 6.44592C1.99999 5.89034 2.45895 5.43994 3.01453 5.43994H20.9946C21.55 5.43994 21.9997 5.89016 22 6.44488V17.5561C21.9996 18.1108 21.55 18.5614 20.9946 18.5614H3.00543C2.44998 18.5614 2.00035 18.1111 2 17.5564V13.5879C2.00036 13.0329 2.45006 12.5829 3.00513 12.5825H3.53447C3.86677 12.5825 4.11637 12.3329 4.11637 12.0006C4.11637 11.6682 3.86684 11.4187 3.53447 11.4187H3.00543C2.45039 11.4183 2.00035 10.9686 2 10.4136V6.44592ZM4.01067 9.45224L4.01066 7.45051H9.61898V7.87085C9.6162 8.13879 9.72129 8.39692 9.90853 8.58729C10.0974 8.77855 10.3552 8.88652 10.6242 8.88652C10.8936 8.88652 11.1515 8.77818 11.3402 8.58698C11.5283 8.39609 11.6322 8.13832 11.6297 7.87107V7.45051H19.9893V16.5509H11.6297V16.1318C11.634 15.8446 11.5151 15.5689 11.3031 15.3746C11.0896 15.1793 10.8019 15.0855 10.5142 15.117C9.9989 15.1739 9.6108 15.6133 9.61899 16.132V16.5509H4.01067V14.5493C5.21147 14.3241 6.12709 13.2645 6.12709 12.0007C6.12709 10.737 5.21147 9.67737 4.01067 9.45224ZM11.3034 10.1897C11.0899 9.99405 10.8023 9.89999 10.5143 9.93183C9.9987 9.98866 9.61082 10.4285 9.619 10.9468V13.0559C9.61622 13.3238 9.7206 13.5816 9.90824 13.772C10.0975 13.964 10.3556 14.0716 10.6243 14.0716C10.8931 14.0716 11.1511 13.9638 11.3403 13.772C11.5286 13.5811 11.6322 13.3232 11.6297 13.0561V10.9466C11.634 10.6595 11.5154 10.384 11.3034 10.1897Z" fill="#2F2F2F"/>
</svg>
