<svg width="25" height="24" viewBox="0 0 25 24" fill="none" xmlns="http://www.w3.org/2000/svg">
  <path fill-rule="evenodd" clip-rule="evenodd"
        d="M2.5 12C2.5 17.5228 6.97715 22 12.5 22C18.0228 22 22.5 17.5228 22.5 12C22.5 6.47715 18.0228 2 12.5 2C6.97715 2 2.5 6.47715 2.5 12ZM17.4623 11C17.2826 8.63418 16.4597 6.42983 15.006 4.40036C17.8918 5.35143 20.0516 7.90037 20.4381 11H17.4623ZM9.54459 13C9.75773 15.3624 10.7361 17.535 12.5 19.54C14.2639 17.535 15.2423 15.3624 15.4554 13H9.54459ZM15.006 19.5996C17.8918 18.6486 20.0516 16.0996 20.4381 13H17.4623C17.2826 15.3658 16.4597 17.5702 15.006 19.5996ZM15.4554 11C15.2423 8.63762 14.2639 6.465 12.5 4.45996C10.7361 6.465 9.75773 8.63762 9.54459 11H15.4554ZM7.53764 13C7.7174 15.3658 8.5403 17.5702 9.99398 19.5996C7.10816 18.6486 4.9484 16.0996 4.56188 13H7.53764ZM9.99398 4.40036C7.10816 5.35143 4.9484 7.90037 4.56188 11H7.53764C7.7174 8.63418 8.5403 6.42983 9.99398 4.40036Z"
        fill="#01B26E"/>
</svg>
