<svg width="24" height="24" viewBox="0 0 24 24" fill="none" xmlns="http://www.w3.org/2000/svg">
  <g clip-path="url(#clip0_58_6)">
    <path
      d="M24 11.9942C24 11.7257 23.9033 11.4893 23.6992 11.2852L15.1807 2.96004C14.998 2.76668 14.7617 2.67 14.4824 2.67C13.9238 2.67 13.4941 3.08894 13.4941 3.64754C13.4941 3.92683 13.6123 4.16316 13.7842 4.34578L21.6045 11.9942L13.7842 19.6427C13.6123 19.8253 13.4941 20.0723 13.4941 20.3409C13.4941 20.8995 13.9238 21.3184 14.4824 21.3184C14.7617 21.3184 14.998 21.2218 15.1807 21.0391L23.6992 12.7032C23.9033 12.5098 24 12.2628 24 11.9942Z"
      fill="#2F2F2F"/>
  </g>
  <defs>
    <clipPath id="clip0_58_6">
      <rect width="24" height="24" fill="white"/>
    </clipPath>
  </defs>
</svg>
