<svg width="24" height="24" viewBox="0 0 24 24" fill="none" xmlns="http://www.w3.org/2000/svg">
  <path fill-rule="evenodd" clip-rule="evenodd"
        d="M12 5.90677L10.8694 8.58386C10.3908 9.71724 9.27213 10.4901 7.99064 10.5727L4.9637 10.7679L7.29191 12.6176C8.27758 13.4007 8.70487 14.6511 8.39151 15.8356L7.65133 18.6333L10.2208 17.0994C11.3086 16.45 12.6914 16.45 13.7792 17.0994L16.3487 18.6333L15.6085 15.8356C15.2951 14.6511 15.7224 13.4007 16.7081 12.6176L19.0363 10.7679L16.0094 10.5727C14.7279 10.4901 13.6092 9.71724 13.1306 8.58386L12 5.90677ZM13.0351 2.66538C12.6604 1.77821 11.3396 1.77821 10.9649 2.66538L8.79932 7.79339C8.63978 8.17119 8.26689 8.4288 7.83973 8.45634L2.04159 8.83018C1.03849 8.89485 0.630344 10.0893 1.40189 10.7023L5.8616 14.2454C6.19016 14.5064 6.33259 14.9233 6.22813 15.3181L4.81031 20.6771C4.56502 21.6043 5.63356 22.3425 6.48506 21.8341L11.4069 18.8959C11.7695 18.6794 12.2305 18.6794 12.5931 18.8959L17.5149 21.8341C18.3664 22.3425 19.435 21.6043 19.1897 20.6771L17.7719 15.3181C17.6674 14.9233 17.8098 14.5064 18.1384 14.2454L22.5981 10.7023C23.3697 10.0893 22.9615 8.89485 21.9584 8.83018L16.1603 8.45634C15.7331 8.4288 15.3602 8.17119 15.2007 7.79339L13.0351 2.66538Z"
        fill="#2F2F2F"/>
</svg>
