<svg width="24" height="24" viewBox="0 0 24 24" fill="none" xmlns="http://www.w3.org/2000/svg">
  <path fill-rule="evenodd" clip-rule="evenodd"
        d="M18.6667 4.22222H9.77778C9.16413 4.22222 8.66667 4.71968 8.66667 5.33333V6.44444H14.2222C16.0632 6.44444 17.5556 7.93683 17.5556 9.77778V15.3333H18.6667C19.2803 15.3333 19.7778 14.8359 19.7778 14.2222V5.33333C19.7778 4.71968 19.2803 4.22222 18.6667 4.22222ZM17.5556 17.5556V18.6667C17.5556 20.5076 16.0632 22 14.2222 22H5.33333C3.49238 22 2 20.5076 2 18.6667V9.77778C2 7.93683 3.49238 6.44444 5.33333 6.44444H6.44444V5.33333C6.44444 3.49238 7.93683 2 9.77778 2H18.6667C20.5076 2 22 3.49238 22 5.33333V14.2222C22 16.0632 20.5076 17.5556 18.6667 17.5556H17.5556ZM4.22222 9.77778C4.22222 9.16413 4.71968 8.66667 5.33333 8.66667H14.2222C14.8359 8.66667 15.3333 9.16413 15.3333 9.77778V18.6667C15.3333 19.2803 14.8359 19.7778 14.2222 19.7778H5.33333C4.71968 19.7778 4.22222 19.2803 4.22222 18.6667V9.77778Z"
        fill="#2F2F2F"/>
</svg>
