<svg width="24" height="24" viewBox="0 0 24 24" fill="none" xmlns="http://www.w3.org/2000/svg">
<path d="M11.6133 20.1514C11.2122 20.1514 10.8659 20.0081 10.5742 19.7217C10.2878 19.4352 10.1445 19.0889 10.1445 18.6826C10.1445 18.2816 10.2878 17.9378 10.5742 17.6514C10.8659 17.3649 11.2122 17.2217 11.6133 17.2217C12.0143 17.2217 12.3581 17.3649 12.6445 17.6514C12.9362 17.9378 13.082 18.2816 13.082 18.6826C13.082 18.9535 13.0143 19.2008 12.8789 19.4248C12.7435 19.6436 12.5664 19.8206 12.3477 19.9561C12.1289 20.0863 11.8841 20.1514 11.6133 20.1514Z" fill="#2F2F2F"/>
<path d="M11.5618 15.3623C11 15.3623 10.5375 14.9043 10.5879 14.3447C10.635 13.8212 10.719 13.3765 10.8398 13.0107C11.0378 12.4274 11.3138 11.9561 11.668 11.5967C12.0221 11.2373 12.4518 10.9066 12.957 10.6045C13.2643 10.417 13.5404 10.1956 13.7852 9.94043C14.0352 9.68522 14.2305 9.39355 14.3711 9.06543C14.5169 8.7373 14.5898 8.37012 14.5898 7.96387C14.5898 7.47428 14.4727 7.0498 14.2383 6.69043C14.0091 6.33105 13.7018 6.05501 13.3164 5.8623C12.931 5.66439 12.5039 5.56543 12.0352 5.56543C11.6185 5.56543 11.2174 5.65137 10.832 5.82324C10.4518 5.99512 10.1341 6.26595 9.87891 6.63574C9.78395 6.77332 9.70378 6.92605 9.63839 7.09391C9.43303 7.62108 8.99509 8.07324 8.42934 8.07324C7.81462 8.07324 7.3079 7.55298 7.46677 6.95914C7.58506 6.51699 7.76411 6.11752 8.00391 5.76074C8.43099 5.12012 8.99349 4.63314 9.69141 4.2998C10.3945 3.96647 11.1758 3.7998 12.0352 3.7998C12.9674 3.7998 13.7799 3.9821 14.4727 4.34668C15.1706 4.70605 15.7096 5.20345 16.0898 5.83887C16.4753 6.47428 16.668 7.20606 16.668 8.03418C16.668 8.6123 16.5794 9.13314 16.4023 9.59668C16.2253 10.0602 15.9701 10.4743 15.6367 10.8389C15.3086 11.2035 14.9128 11.5264 14.4492 11.8076C14.0013 12.0889 13.6393 12.3857 13.3633 12.6982C13.0872 13.0055 12.8867 13.3701 12.7617 13.792C12.7099 13.9669 12.6679 14.1594 12.6358 14.3692C12.5521 14.916 12.115 15.3623 11.5618 15.3623Z" fill="#2F2F2F"/>
</svg>
