<svg width="120" height="120" viewBox="0 0 120 120" fill="none" xmlns="http://www.w3.org/2000/svg">
  <g clip-path="url(#clip0_1_2)">
    <path fill-rule="evenodd" clip-rule="evenodd"
          d="M63.4284 4.07755C63.4284 1.82231 65.2407 0 67.4995 0C69.7409 0 71.5707 1.81745 71.5707 4.07755V6.40299C73.1669 6.73854 74.7412 7.14634 76.2854 7.61795V4.07762C76.2854 1.82238 78.0977 6.8903e-05 80.3565 6.8903e-05C82.5979 6.8903e-05 84.4277 1.81752 84.4277 4.07762V10.8114C86.0397 11.5939 87.6139 12.4495 89.1424 13.3758V4.07762C89.1424 1.82238 90.9547 6.8903e-05 93.2135 6.8903e-05C95.4549 6.8903e-05 97.2847 1.81753 97.2847 4.07762V19.3787C109.089 29.823 116.57 45.088 116.57 62.0776C116.57 93.4631 91.1019 119 59.7851 119C28.4683 119 3 93.4631 3 62.0776C3 30.6945 28.4683 5.15525 59.7851 5.15525C61.0132 5.15525 62.2265 5.1994 63.4284 5.27829V4.07755ZM59.7851 13.3112C32.9618 13.3112 11.1428 35.178 11.1428 62.078C11.1428 88.8207 32.7281 110.611 59.3549 110.843H59.7846C86.5953 110.843 108.427 88.9624 108.427 62.0761C108.427 50.3017 104.238 39.4977 97.2838 31.0653V37.5881C97.2838 39.8308 95.4589 41.6657 93.2126 41.6657C90.9491 41.6657 89.1415 39.8261 89.1415 37.5881V23.2323C87.6361 22.0893 86.0612 21.0289 84.4268 20.061V29.8543C84.4268 32.097 82.6019 33.9319 80.3556 33.9319C78.0921 33.9319 76.2845 32.0923 76.2845 29.8542L76.2853 16.2118C74.7481 15.6508 73.1733 15.1659 71.5706 14.7638L71.5698 29.8544C71.5698 32.097 69.7449 33.9319 67.4986 33.9319C65.2351 33.9319 63.4275 32.0923 63.4275 29.8543V13.4454C62.2222 13.3573 61.0096 13.3112 59.7851 13.3112ZM42.0228 91.1197C43.4162 89.512 49.4393 85 59.5001 85C69.5609 85 75.584 89.512 76.9773 91.1197C78.4241 92.7891 80.9504 92.9696 82.6198 91.5228C84.2892 90.0759 84.4697 87.5497 83.0228 85.8803C80.0828 82.488 71.8393 77 59.5001 77C47.1609 77 38.9173 82.488 35.9773 85.8803C34.5305 87.5497 34.7109 90.0759 36.3803 91.5228C38.0498 92.9696 40.576 92.7891 42.0228 91.1197ZM51 47.5C53.2091 47.5 55 49.2909 55 51.5V52.5C55 59.1274 49.6274 64.5 43 64.5H29.5C27.2909 64.5 25.5 62.7091 25.5 60.5C25.5 58.2909 27.2909 56.5 29.5 56.5H43C45.2091 56.5 47 54.7091 47 52.5V51.5C47 49.2909 48.7909 47.5 51 47.5ZM64.5 51.5C64.5 49.2909 66.2909 47.5 68.5 47.5C70.7091 47.5 72.5 49.2909 72.5 51.5V52.5C72.5 54.7091 74.2909 56.5 76.5 56.5H90C92.2091 56.5 94 58.2909 94 60.5C94 62.7091 92.2091 64.5 90 64.5H76.5C69.8726 64.5 64.5 59.1274 64.5 52.5V51.5Z"
          fill="#AAABB2"/>
  </g>
  <defs>
    <clipPath id="clip0_1_2">
      <rect width="120" height="120" fill="white"/>
    </clipPath>
  </defs>
</svg>
