<svg width="24" height="24" viewBox="0 0 24 24" fill="none" xmlns="http://www.w3.org/2000/svg">
<path d="M12 22C6.47715 22 2 17.5228 2 12C2 6.47715 6.47715 2 12 2C17.5228 2 22 6.47715 22 12C22 17.5228 17.5228 22 12 22ZM12 20C16.4183 20 20 16.4183 20 12C20 7.58172 16.4183 4 12 4C7.58172 4 4 7.58172 4 12C4 16.4183 7.58172 20 12 20Z" fill="#2F2F2F"/>
<path fill-rule="evenodd" clip-rule="evenodd" d="M10.9367 6.86855C11.387 6.01518 12.6091 6.01517 13.0594 6.86855L14.1813 8.99495L16.5503 9.40485C17.501 9.56935 17.8787 10.7317 17.2062 11.4236L15.5306 13.1477L15.8728 15.5274C16.0102 16.4825 15.0214 17.2009 14.1556 16.7751L11.9981 15.7143L9.84055 16.7751C8.97469 17.2009 7.98592 16.4825 8.12327 15.5274L8.4655 13.1477L6.78986 11.4236C6.11739 10.7317 6.49505 9.56935 7.4458 9.40485L9.81481 8.99495L10.9367 6.86855ZM11.9981 9.1429L11.4001 10.2761C11.2265 10.6052 10.91 10.8352 10.5434 10.8986L9.28086 11.1171L10.1739 12.0359C10.4332 12.3027 10.5541 12.6747 10.5011 13.043L10.3187 14.3113L11.4686 13.7459C11.8025 13.5817 12.1936 13.5817 12.5276 13.7459L13.6774 14.3113L13.495 13.043C13.442 12.6747 13.5629 12.3027 13.8222 12.0359L14.7152 11.1171L13.4527 10.8986C13.0861 10.8352 12.7696 10.6052 12.596 10.2761L11.9981 9.1429Z" fill="#2F2F2F"/>
</svg>
