<svg width="24" height="24" viewBox="0 0 24 24" fill="none" xmlns="http://www.w3.org/2000/svg">
<path d="M12.7418 8.70225C13.089 9.04938 13.6518 9.04938 13.9989 8.70225L14.8519 7.84931L14.8519 17.9256C14.8519 18.4165 15.2498 18.8145 15.7407 18.8145C16.2317 18.8145 16.6296 18.4165 16.6296 17.9256L16.6296 7.84931L17.4826 8.70225C17.8297 9.04938 18.3925 9.04938 18.7396 8.70225C19.0868 8.35512 19.0868 7.7923 18.7396 7.44517L16.3693 5.0748C16.0221 4.72767 15.4593 4.72767 15.1122 5.0748L12.7418 7.44517C12.3947 7.79231 12.3947 8.35512 12.7418 8.70225Z" fill="#2F2F2F"/>
<path d="M9.14815 16.15L10.0011 15.297C10.3482 14.9499 10.911 14.9499 11.2582 15.297C11.6053 15.6442 11.6053 16.207 11.2582 16.5541L8.8878 18.9245C8.54067 19.2716 7.97785 19.2716 7.63072 18.9245L5.26035 16.5541C4.91322 16.207 4.91322 15.6442 5.26035 15.297C5.60748 14.9499 6.1703 14.9499 6.51743 15.297L7.37037 16.15L7.37037 6.07371C7.37037 5.58279 7.76834 5.18482 8.25926 5.18482C8.75018 5.18482 9.14815 5.58279 9.14815 6.07371L9.14815 16.15Z" fill="#2F2F2F"/>
</svg>
