<svg width="22" height="22" viewBox="0 0 22 22" fill="none" xmlns="http://www.w3.org/2000/svg">
<path fill-rule="evenodd" clip-rule="evenodd" d="M18.377 11.3484L16.8409 15.6684C16.2465 17.3444 15.3864 18.6312 14.2605 19.4986C13.132 20.368 11.7583 20.7992 10.1696 20.7992C8.25462 20.7992 6.62919 20.1547 5.48322 18.9567C4.33832 17.7598 3.69922 16.0391 3.69922 13.936V6.43903C3.69922 5.88187 3.87755 5.39237 4.20783 5.03946C4.53953 4.68502 5.00512 4.48952 5.53527 4.48952C5.7597 4.48952 5.98664 4.53092 6.19531 4.61463V4.19605C6.19531 3.6494 6.36607 3.16972 6.69146 2.82416C7.01842 2.47693 7.47825 2.29017 8.00518 2.29017C8.23195 2.29017 8.46029 2.34136 8.6665 2.43956C8.77421 2.1389 8.94201 1.87669 9.16535 1.67046C9.49505 1.36602 9.92923 1.19922 10.4227 1.19922C10.9211 1.19922 11.3576 1.3593 11.6863 1.66776C11.9094 1.87722 12.0721 2.14492 12.1732 2.45424C12.394 2.34774 12.6409 2.29017 12.9014 2.29017C13.4579 2.29017 13.9437 2.47555 14.2902 2.83145C14.636 3.18662 14.816 3.68365 14.816 4.25714V10.0823L14.9473 9.7591C15.2846 8.9752 15.9247 8.53039 16.6629 8.53039C17.71 8.53039 18.5514 9.30184 18.5514 10.4014C18.5514 10.7022 18.4912 11.0248 18.377 11.3484ZM15.0241 13.1799C14.9087 13.4309 14.763 13.6244 14.576 13.7532C14.3858 13.8843 14.1789 13.9306 13.9748 13.9306C13.7199 13.9306 13.4809 13.8406 13.3075 13.6533C13.1359 13.468 13.0552 13.2167 13.0552 12.9411V4.35314C13.0552 4.23404 13.016 4.15209 12.9677 4.10176C12.92 4.05221 12.8472 4.01603 12.7443 4.01603C12.6413 4.01603 12.5685 4.05221 12.5209 4.10175C12.4725 4.15206 12.4333 4.23401 12.4333 4.35314V10.5759C12.4333 11.0622 12.0215 11.417 11.5748 11.417C11.1099 11.417 10.7249 11.0533 10.7249 10.5759V3.27092C10.7249 3.04149 10.587 2.92508 10.4227 2.92508C10.3164 2.92508 10.2417 2.96269 10.1927 3.01417C10.1425 3.06684 10.1031 3.15147 10.1031 3.27092V10.5759C10.1031 11.086 9.68464 11.417 9.2445 11.417C8.80997 11.417 8.39467 11.0831 8.39467 10.5759V4.35314C8.39467 4.23408 8.35555 4.15278 8.30705 4.10283C8.25924 4.05358 8.18433 4.01603 8.07501 4.01603C7.97307 4.01603 7.907 4.05128 7.8646 4.09725C7.82011 4.14549 7.78152 4.2281 7.78152 4.35314V11.021C7.78152 11.5367 7.34822 11.8622 6.91424 11.8622C6.48525 11.8622 6.07312 11.5252 6.07312 11.021V6.56122C6.07312 6.44544 6.03405 6.36713 5.98535 6.31843C5.93631 6.26939 5.86 6.23284 5.75346 6.23284C5.64198 6.23284 5.57365 6.26953 5.53235 6.31298C5.48952 6.35803 5.45126 6.43653 5.45126 6.56122V13.7964C5.45126 15.499 5.90831 16.793 6.70125 17.6586C7.49105 18.5208 8.64779 18.9948 10.126 18.9948C11.2962 18.9948 12.306 18.7249 13.1479 18.1167C13.9908 17.5076 14.6932 16.5389 15.211 15.0918L16.809 10.6295C16.8734 10.4543 16.8691 10.3396 16.8481 10.2757C16.8311 10.2238 16.7945 10.1761 16.7012 10.1426L16.6982 10.1415C16.6157 10.1108 16.5424 10.116 16.4804 10.145C16.4172 10.1746 16.3417 10.241 16.2828 10.3742L16.2821 10.3758L15.0241 13.1799Z" fill="#2F2F2F"/>
</svg>
