<svg width="16" height="16" viewBox="0 0 16 16" fill="none" xmlns="http://www.w3.org/2000/svg">
<path fill-rule="evenodd" clip-rule="evenodd" d="M14.1394 2.80506C14.3997 2.54471 14.3997 2.1226 14.1394 1.86225C13.879 1.6019 13.4569 1.6019 13.1966 1.86225L7.66797 7.39085V5.33366C7.66797 4.96547 7.36949 4.66699 7.0013 4.66699C6.63311 4.66699 6.33464 4.96547 6.33464 5.33366V9.00021V9.00033C6.33464 9.09144 6.35291 9.17828 6.386 9.25739C6.41717 9.33208 6.46253 9.40225 6.52208 9.46378L6.52267 9.46439C6.52745 9.46932 6.53231 9.47418 6.53724 9.47896L6.53743 9.47914C6.59906 9.53889 6.66938 9.58438 6.74424 9.61563C6.82335 9.64872 6.91019 9.66699 7.0013 9.66699H10.668C11.0362 9.66699 11.3346 9.36852 11.3346 9.00033C11.3346 8.63214 11.0362 8.33366 10.668 8.33366H8.61078L14.1394 2.80506ZM3.66797 2.00033C2.5634 2.00033 1.66797 2.89576 1.66797 4.00033V12.3337C1.66797 13.4382 2.5634 14.3337 3.66797 14.3337H12.0013C13.1059 14.3337 14.0013 13.4382 14.0013 12.3337V7.66699C14.0013 7.2988 13.7028 7.00033 13.3346 7.00033C12.9664 7.00033 12.668 7.2988 12.668 7.66699V12.3337C12.668 12.7018 12.3695 13.0003 12.0013 13.0003H3.66797C3.29978 13.0003 3.0013 12.7018 3.0013 12.3337V4.00033C3.0013 3.63214 3.29978 3.33366 3.66797 3.33366H8.33463C8.70283 3.33366 9.0013 3.03518 9.0013 2.66699C9.0013 2.2988 8.70283 2.00033 8.33463 2.00033H3.66797Z" fill="white" fill-opacity="0.8"/>
</svg>
