<svg width="24" height="24" viewBox="0 0 24 24" fill="none" xmlns="http://www.w3.org/2000/svg">
<path fill-rule="evenodd" clip-rule="evenodd" d="M14.8 17.2C17.6719 17.2 20 14.8719 20 12C20 9.12812 17.6719 6.8 14.8 6.8C11.9281 6.8 9.6 9.12812 9.6 12C9.6 14.8719 11.9281 17.2 14.8 17.2ZM14.8 19.2C18.7765 19.2 22 15.9764 22 12C22 8.02355 18.7765 4.8 14.8 4.8C10.8235 4.8 7.6 8.02355 7.6 12C7.6 15.9764 10.8235 19.2 14.8 19.2Z" fill="#2F2F2F"/>
<path fill-rule="evenodd" clip-rule="evenodd" d="M17.5 14.5C18.8807 14.5 20 13.3807 20 12C20 10.6193 18.8807 9.5 17.5 9.5C16.1193 9.5 15 10.6193 15 12C15 13.3807 16.1193 14.5 17.5 14.5ZM17.5 16.5C19.9853 16.5 22 14.4853 22 12C22 9.51472 19.9853 7.5 17.5 7.5C15.0147 7.5 13 9.51472 13 12C13 14.4853 15.0147 16.5 17.5 16.5Z" fill="#2F2F2F"/>
<path fill-rule="evenodd" clip-rule="evenodd" d="M12 20C16.4183 20 20 16.4183 20 12C20 7.58172 16.4183 4 12 4C7.58172 4 4 7.58172 4 12C4 16.4183 7.58172 20 12 20ZM12 22C17.5228 22 22 17.5228 22 12C22 6.47715 17.5228 2 12 2C6.47715 2 2 6.47715 2 12C2 17.5228 6.47715 22 12 22Z" fill="#2F2F2F"/>
</svg>
