<svg width="20" height="20" viewBox="0 0 20 20" fill="none" xmlns="http://www.w3.org/2000/svg">
  <path fill-rule="evenodd" clip-rule="evenodd"
    d="M12.3333 14.3333C14.7266 14.3333 16.6667 12.3932 16.6667 10C16.6667 7.60677 14.7266 5.66667 12.3333 5.66667C9.94009 5.66667 7.99999 7.60677 7.99999 10C7.99999 12.3932 9.94009 14.3333 12.3333 14.3333ZM12.3333 16C15.647 16 18.3333 13.3137 18.3333 10C18.3333 6.68629 15.647 4 12.3333 4C9.01962 4 6.33333 6.68629 6.33333 10C6.33333 13.3137 9.01962 16 12.3333 16Z"
    fill="#2F2F2F" />
  <path fill-rule="evenodd" clip-rule="evenodd"
    d="M14.5833 12.0833C15.7339 12.0833 16.6667 11.1506 16.6667 10C16.6667 8.84941 15.7339 7.91667 14.5833 7.91667C13.4327 7.91667 12.5 8.84941 12.5 10C12.5 11.1506 13.4327 12.0833 14.5833 12.0833ZM14.5833 13.75C16.6544 13.75 18.3333 12.0711 18.3333 10C18.3333 7.92893 16.6544 6.25 14.5833 6.25C12.5123 6.25 10.8333 7.92893 10.8333 10C10.8333 12.0711 12.5123 13.75 14.5833 13.75Z"
    fill="#2F2F2F" />
  <path fill-rule="evenodd" clip-rule="evenodd"
    d="M10 16.6666C13.6819 16.6666 16.6667 13.6819 16.6667 9.99996C16.6667 6.31806 13.6819 3.33329 10 3.33329C6.3181 3.33329 3.33333 6.31806 3.33333 9.99996C3.33333 13.6819 6.3181 16.6666 10 16.6666ZM10 18.3333C14.6024 18.3333 18.3333 14.6023 18.3333 9.99996C18.3333 5.39759 14.6024 1.66663 10 1.66663C5.39762 1.66663 1.66666 5.39759 1.66666 9.99996C1.66666 14.6023 5.39762 18.3333 10 18.3333Z"
    fill="#2F2F2F" />
</svg>