<svg width="44" height="44" viewBox="0 0 44 44" fill="none" xmlns="http://www.w3.org/2000/svg">
<path fill-rule="evenodd" clip-rule="evenodd" d="M22 0C28.0748 0 33.5752 2.46267 37.5563 6.44392C41.4903 10.3781 43.9412 15.7956 43.9986 21.7847V21.7972L43.9993 21.8789L44 22L43.9986 22.2028V22.216C43.9412 28.2051 41.4903 33.6219 37.5563 37.5561C33.5752 41.5373 28.0755 44 22 44C15.9252 44 10.4248 41.5373 6.44372 37.5561C2.46259 33.5748 0 28.0743 0 21.9993C0 15.9243 2.46259 10.4245 6.44372 6.44323C10.4248 2.46198 15.9252 0 22 0ZM34.6445 12.6442C35.4785 12.6442 36.2876 12.7543 37.0579 12.9584C34.7892 10.7567 31.6953 9.40079 28.2838 9.40079C24.8045 9.40079 21.6546 10.8107 19.3754 13.0906C17.0956 15.3706 15.6857 18.5206 15.6857 22C15.6857 25.4794 17.0956 28.6294 19.3754 30.9087C21.6553 33.1886 24.8052 34.5985 28.2838 34.5985C31.6953 34.5985 34.7898 33.2426 37.0579 31.0409C36.2883 31.2457 35.4792 31.3551 34.6452 31.3551C32.0622 31.3551 29.7228 30.3079 28.0305 28.6149C26.3376 26.9219 25.2904 24.5824 25.2904 21.9993C25.2904 19.4162 26.3376 17.0767 28.0305 15.3837C29.7221 13.6921 32.0608 12.6442 34.6445 12.6442ZM39.0547 17.5896C37.9259 16.4614 36.3665 15.763 34.6438 15.763C32.9211 15.763 31.3617 16.4614 30.2329 17.5896C29.104 18.7185 28.4063 20.2779 28.4063 22.0007C28.4063 23.7235 29.1047 25.2829 30.2329 26.4118C31.3617 27.54 32.9211 28.2384 34.6438 28.2384C36.3665 28.2384 37.9259 27.54 39.0547 26.4118C40.1829 25.2829 40.8813 23.7235 40.8813 22.0007L40.8806 21.9204C40.8598 20.2288 40.1656 18.7005 39.0547 17.5896ZM28.2831 6.28265C30.2426 6.28265 32.1175 6.64118 33.8479 7.29665C30.608 4.68309 26.4864 3.11814 22 3.11814C16.7862 3.11814 12.0652 5.23197 8.64815 8.64842C5.2318 12.0649 3.11804 16.786 3.11804 22C3.11804 27.2147 5.23111 31.9351 8.64815 35.3523C12.0652 38.7687 16.7855 40.8826 22 40.8826C26.4871 40.8826 30.608 39.3176 33.8479 36.7034C32.1175 37.3588 30.2426 37.7174 28.2831 37.7174C23.9435 37.7174 20.0136 35.9579 17.1703 33.1139C14.3264 30.2698 12.567 26.3405 12.567 22.0007C12.567 17.6609 14.3264 13.7309 17.1703 10.8868C20.0136 8.0421 23.9435 6.28265 28.2831 6.28265Z" fill="#2F2F2F"/>
</svg>
