<svg width="14" height="14" viewBox="0 0 14 14" fill="none" xmlns="http://www.w3.org/2000/svg">
<path fill-rule="evenodd" clip-rule="evenodd" d="M13.6349 7.64187C13.5999 8.00839 13.2457 8.24332 12.8845 8.17186C12.5233 8.10041 12.2927 7.74939 12.3186 7.38211C12.3275 7.25611 12.332 7.12875 12.332 7.00016C12.332 6.87158 12.3275 6.74422 12.3186 6.61822C12.2927 6.25094 12.5233 5.89992 12.8845 5.82846C13.2457 5.75701 13.5999 5.99193 13.6349 6.35846C13.655 6.56964 13.6654 6.7837 13.6654 7.00016C13.6654 7.21663 13.655 7.43069 13.6349 7.64187ZM12.1446 2.76146C12.3789 3.04552 12.2944 3.46211 11.9885 3.66694C11.6825 3.87177 11.2714 3.7865 11.0301 3.50832C10.8633 3.31592 10.6829 3.13554 10.4905 2.96871C10.2124 2.72751 10.1271 2.31633 10.3319 2.01037C10.5368 1.70442 10.9533 1.62 11.2374 1.85425C11.568 2.12691 11.8719 2.43082 12.1446 2.76146ZM7.64041 0.363982C8.00693 0.398987 8.24185 0.753192 8.1704 1.11438C8.09894 1.47557 7.74792 1.70613 7.38065 1.68024C7.25465 1.67136 7.12729 1.66683 6.9987 1.66683C6.87011 1.66683 6.74275 1.67136 6.61675 1.68024C6.24947 1.70613 5.89845 1.47557 5.827 1.11438C5.75554 0.753192 5.99047 0.398987 6.35699 0.363982C6.56817 0.343813 6.78223 0.333496 6.9987 0.333496C7.21517 0.333496 7.42922 0.343813 7.64041 0.363982ZM2.76 1.85425C3.04406 1.62 3.46064 1.70442 3.66547 2.01037C3.8703 2.31633 3.78503 2.72751 3.50685 2.96871C3.31445 3.13555 3.13408 3.31592 2.96725 3.50832C2.72604 3.7865 2.31486 3.87177 2.00891 3.66694C1.70295 3.46211 1.61854 3.04553 1.85279 2.76146C2.12545 2.43083 2.42936 2.12692 2.76 1.85425ZM1.11292 5.82846C0.751727 5.75701 0.397522 5.99193 0.362517 6.35846C0.342348 6.56964 0.332031 6.7837 0.332031 7.00016C0.332031 7.21663 0.342348 7.43069 0.362517 7.64187C0.397522 8.00839 0.751727 8.24332 1.11292 8.17186C1.47411 8.10041 1.70467 7.74939 1.67877 7.38211C1.66989 7.25611 1.66536 7.12875 1.66536 7.00016C1.66536 6.87157 1.66989 6.74422 1.67877 6.61821C1.70467 6.25094 1.47411 5.89992 1.11292 5.82846ZM1.85279 11.2389C1.61854 10.9548 1.70295 10.5382 2.00891 10.3334C2.31486 10.1286 2.72604 10.2138 2.96725 10.492C3.13408 10.6844 3.31445 10.8648 3.50685 11.0316C3.78503 11.2728 3.8703 11.684 3.66547 11.99C3.46064 12.2959 3.04406 12.3803 2.76 12.1461C2.42936 11.8734 2.12545 11.5695 1.85279 11.2389ZM6.35699 13.6363C5.99047 13.6013 5.75554 13.2471 5.827 12.8859C5.89845 12.5248 6.24947 12.2942 6.61675 12.3201C6.74275 12.329 6.87011 12.3335 6.9987 12.3335C7.12729 12.3335 7.25464 12.329 7.38065 12.3201C7.74792 12.2942 8.09894 12.5248 8.1704 12.8859C8.24185 13.2471 8.00693 13.6013 7.64041 13.6363C7.42922 13.6565 7.21517 13.6668 6.9987 13.6668C6.78223 13.6668 6.56817 13.6565 6.35699 13.6363ZM11.2374 12.1461C10.9533 12.3803 10.5368 12.2959 10.3319 11.99C10.1271 11.684 10.2124 11.2728 10.4905 11.0316C10.6829 10.8648 10.8633 10.6844 11.0301 10.492C11.2714 10.2138 11.6825 10.1286 11.9885 10.3334C12.2944 10.5382 12.3789 10.9548 12.1446 11.2389C11.8719 11.5695 11.568 11.8734 11.2374 12.1461Z" fill="#0489D4"/>
</svg>
