<svg width="24" height="24" viewBox="0 0 24 24" fill="none" xmlns="http://www.w3.org/2000/svg">
<path fill-rule="evenodd" clip-rule="evenodd" d="M18.2051 8.5295C18.4006 8.7245 18.5 8.98066 18.5 9.23653C18.5 9.49241 18.4006 9.74806 18.2051 9.94356L18.1191 10.0295C17.7291 10.4205 17.0961 10.4205 16.7051 10.0295L12.8418 6.16622L12.8418 14.2365C12.8418 14.7885 12.3938 15.2365 11.8418 15.2365C11.2898 15.2365 10.8418 14.7885 10.8418 14.2365L10.8418 6.16622L6.97852 10.0295C6.58852 10.4205 5.95545 10.4205 5.56445 10.0295L5.47852 9.94356C5.08752 9.55356 5.08752 8.9205 5.47852 8.5295L11.1348 2.87325C11.5248 2.48225 12.1578 2.48225 12.5488 2.87325L18.2051 8.5295ZM5.5 19.4091C4.94772 19.4091 4.5 19.8568 4.5 20.4091C4.5 20.9614 4.94772 21.4091 5.5 21.4091L18.5 21.4091C19.0523 21.4091 19.5 20.9614 19.5 20.4091C19.5 19.8568 19.0523 19.4091 18.5 19.4091L5.5 19.4091Z" fill="#2F2F2F"/>
</svg>
