<svg width="24" height="24" viewBox="0 0 24 24" fill="none" xmlns="http://www.w3.org/2000/svg">
<path d="M20 17H17C15.3431 17 14 15.6569 14 14C14 12.3431 15.3431 11 17 11H20V9C20 7.89543 19.1046 7 18 7H4.5C4.32877 7 4.16156 6.98278 4 6.94999V18C4 19.1046 4.89543 20 6 20H18C19.1046 20 20 19.1046 20 18V17ZM20 15V13H17C16.4477 13 16 13.4477 16 14C16 14.5523 16.4477 15 17 15H20ZM4.5 5H16C16 4.44772 15.5523 4 15 4H4.5C4.22386 4 4 4.22386 4 4.5C4 4.77614 4.22386 5 4.5 5ZM18 5C20.2091 5 22 6.79086 22 9V18C22 20.2091 20.2091 22 18 22H6C3.79086 22 2 20.2091 2 18V5C2 4.93392 2.00641 4.86933 2.01864 4.80683C2.00634 4.70628 2 4.60388 2 4.5C2 3.11929 3.11929 2 4.5 2H15C16.6569 2 18 3.34315 18 5Z" fill="#2F2F2F"/>
</svg>
