<svg width="24" height="24" viewBox="0 0 24 24" fill="none" xmlns="http://www.w3.org/2000/svg">
<path fill-rule="evenodd" clip-rule="evenodd" d="M12 22C17.5228 22 22 17.5228 22 12C22 6.47715 17.5228 2 12 2C6.47715 2 2 6.47715 2 12C2 17.5228 6.47715 22 12 22ZM8.75002 15.25C8.33786 14.8379 8.34352 14.1679 8.76259 13.7628L10.5859 12.0001L8.76254 10.2372C8.3435 9.8321 8.33785 9.16215 8.75 8.75C9.16215 8.33785 9.8321 8.3435 10.2372 8.76255L12.0001 10.5859L13.7628 8.76259C14.1679 8.34352 14.8379 8.33786 15.25 8.75002C15.6622 9.16217 15.6565 9.8321 15.2375 10.2372L13.4143 12.0001L15.2375 13.7628C15.6565 14.1679 15.6621 14.8379 15.25 15.25C14.8378 15.6622 14.1679 15.6565 13.7628 15.2375L12.0001 13.4143L10.2372 15.2375C9.8321 15.6565 9.16217 15.6622 8.75002 15.25Z" fill="#2F2F2F"/>
</svg>
