<svg width="30" height="30" viewBox="0 0 30 30" fill="none" xmlns="http://www.w3.org/2000/svg">
<path fill-rule="evenodd" clip-rule="evenodd" d="M25.368 15.2457C25.368 14.4799 25.2993 13.7435 25.1716 13.0366H15V17.2143H20.8124C20.562 18.5643 19.8011 19.7081 18.6573 20.4739V23.1837H22.1476C24.1898 21.3035 25.368 18.5348 25.368 15.2457Z" fill="#4285F4"/>
<path fill-rule="evenodd" clip-rule="evenodd" d="M14.9999 25.8002C17.9159 25.8002 20.3606 24.8332 22.1475 23.1837L18.6572 20.4739C17.6901 21.1219 16.453 21.5048 14.9999 21.5048C12.187 21.5048 9.80609 19.605 8.95681 17.0522H5.34863V19.8504C7.12572 23.3801 10.7781 25.8002 14.9999 25.8002Z" fill="#34A853"/>
<path fill-rule="evenodd" clip-rule="evenodd" d="M8.9571 17.0521C8.7411 16.4041 8.61838 15.7119 8.61838 15.0001C8.61838 14.2883 8.7411 13.5961 8.9571 12.9481V10.1499H5.34892C4.61747 11.6079 4.2002 13.2574 4.2002 15.0001C4.2002 16.7428 4.61747 18.3923 5.34892 19.8503L8.9571 17.0521Z" fill="#FBBC05"/>
<path fill-rule="evenodd" clip-rule="evenodd" d="M14.9999 8.49565C16.5855 8.49565 18.0092 9.04056 19.1285 10.1107L22.2261 7.0131C20.3557 5.27038 17.911 4.2002 14.9999 4.2002C10.7781 4.2002 7.12572 6.62038 5.34863 10.15L8.95682 12.9482C9.80609 10.3955 12.187 8.49565 14.9999 8.49565Z" fill="#EA4335"/>
</svg>
