<svg width="26" height="20" viewBox="0 0 26 20" fill="none" xmlns="http://www.w3.org/2000/svg">
<path d="M25.0455 2.36772C24.1424 2.76969 23.1718 3.0404 22.1532 3.16243C23.1933 2.53794 23.992 1.5484 24.3674 0.369155C23.3948 0.947498 22.3168 1.36792 21.1693 1.59454C20.2519 0.613208 18.9418 0 17.4936 0C14.2424 0 11.8533 3.04143 12.5876 6.19873C8.40364 5.98851 4.69318 3.97867 2.20898 0.923913C0.889659 3.19319 1.52477 6.16181 3.76659 7.66509C2.94227 7.63843 2.165 7.41181 1.48693 7.03343C1.4317 9.37244 3.10386 11.5607 5.52568 12.0478C4.81693 12.2406 4.04068 12.2857 3.25114 12.1339C3.89136 14.1397 5.75068 15.5988 7.95568 15.6399C5.83864 17.3041 3.17136 18.0476 0.5 17.7317C2.72852 19.1643 5.37636 20 8.21955 20C17.5693 20 22.8517 12.0826 22.5326 4.98154C23.5165 4.26887 24.3705 3.37982 25.0455 2.36772Z" fill="white"/>
</svg>
