<svg width="24" height="24" viewBox="0 0 24 24" fill="none" xmlns="http://www.w3.org/2000/svg">
<path fill-rule="evenodd" clip-rule="evenodd" d="M1.32857 14.1921C1.72942 13.5288 2.43753 13.125 3.19999 13.125C3.40311 13.125 3.64511 13.1248 3.91361 13.1184C3.69637 12.7523 3.50925 12.3657 3.3534 11.9616C2.58088 9.95824 2.63345 7.68599 3.30356 5.53208C3.58746 4.61956 4.40497 3.99079 5.34095 3.96509C6.27693 3.9394 7.12626 4.52241 7.45761 5.41803C7.82747 6.41774 8.27704 6.81205 8.78669 7.0494C9.11172 7.20076 9.51894 7.31376 10.0457 7.38873C10.7747 4.8114 13.0501 3 15.85 3C16.6738 3 17.4563 3.19829 18.1014 3.46155C18.3646 3.56892 18.631 3.69786 18.8888 3.84777L20.4508 3.59101C21.2332 3.46242 22.0227 3.77403 22.5177 4.4068C23.0128 5.03956 23.1369 5.89571 22.8426 6.64813L21.8956 9.06949C21.8194 12.9072 20.7501 15.9361 18.7118 18.0207C16.6002 20.1804 13.7673 21 10.9 21C9.02658 21 7.09054 20.6837 5.40793 19.9954C3.75208 19.3179 2.11129 18.1793 1.23226 16.3812C0.891274 15.6838 0.927718 14.8555 1.32857 14.1921ZM19.7 8.625L20.8 5.8125L18.3555 6.21428C18.3364 6.19538 18.3164 6.17648 18.2955 6.1576C17.7853 5.69507 16.7894 5.25 15.85 5.25C13.65 5.25 12 6.9375 12 9.1875V9.75C11.2024 9.75 10.4691 9.71714 9.79998 9.62533C8.78017 9.48539 7.90964 9.20848 7.1884 8.70221C6.42503 8.16636 5.82889 7.37357 5.39999 6.21428C5.01156 7.46283 4.89745 8.69134 5.05768 9.80783C5.22349 10.9632 5.68308 11.9985 6.43645 12.812C7.01669 13.4385 7.7712 13.9333 8.69998 14.25C7.92288 14.7799 6.90177 15.0601 5.92396 15.2084C5.88232 15.2148 5.84076 15.2209 5.7993 15.2267C4.74715 15.375 3.75986 15.375 3.19999 15.375C3.63983 16.2747 4.4314 16.9944 5.43406 17.5344C6.93898 18.3448 8.91949 18.75 10.9 18.75C15.85 18.75 19.7 15.9375 19.7 8.625Z" fill="#2F2F2F"/>
</svg>
