<svg width="24" height="24" viewBox="0 0 24 24" fill="none" xmlns="http://www.w3.org/2000/svg">
<path fill-rule="evenodd" clip-rule="evenodd" d="M4 8C4 8.55228 3.55228 9 3 9C2.44772 9 2 8.55228 2 8V6C2 3.79086 3.79086 2 6 2H8C8.55228 2 9 2.44772 9 3C9 3.55228 8.55228 4 8 4H6C4.89543 4 4 4.89543 4 6V8ZM16 4C15.4477 4 15 3.55228 15 3C15 2.44772 15.4477 2 16 2H18C20.2091 2 22 3.79086 22 6V8C22 8.55228 21.5523 9 21 9C20.4477 9 20 8.55228 20 8V6C20 4.89543 19.1046 4 18 4H16ZM2 16C2 15.4477 2.44772 15 3 15C3.55228 15 4 15.4477 4 16V18C4 19.1046 4.89543 20 6 20H8C8.55228 20 9 20.4477 9 21C9 21.5523 8.55228 22 8 22H6C3.79086 22 2 20.2091 2 18V16ZM20 16C20 15.4477 20.4477 15 21 15C21.5523 15 22 15.4477 22 16V18C22 20.2091 20.2091 22 18 22H16C15.4477 22 15 21.5523 15 21C15 20.4477 15.4477 20 16 20H18C19.1046 20 20 19.1046 20 18V16ZM7.5 7.5V9.5H9.5V7.5H7.5ZM7 6C6.44772 6 6 6.44772 6 7V10C6 10.5523 6.44772 11 7 11H10C10.5523 11 11 10.5523 11 10V7C11 6.44772 10.5523 6 10 6H7ZM7.5 16.5V14.5H9.5V16.5H7.5ZM6 14C6 13.4477 6.44772 13 7 13H10C10.5523 13 11 13.4477 11 14V17C11 17.5523 10.5523 18 10 18H7C6.44772 18 6 17.5523 6 17V14ZM14.5 7.5V9.5H16.5V7.5H14.5ZM14 6C13.4477 6 13 6.44772 13 7V10C13 10.5523 13.4477 11 14 11H17C17.5523 11 18 10.5523 18 10V7C18 6.44772 17.5523 6 17 6H14ZM13 13.5C13 13.2239 13.2239 13 13.5 13H14.5C14.7761 13 15 13.2239 15 13.5V14.5C15 14.7761 14.7761 15 14.5 15H13.5C13.2239 15 13 14.7761 13 14.5V13.5ZM16.5 16C16.2239 16 16 16.2239 16 16.5V17.5C16 17.7761 16.2239 18 16.5 18H17.5C17.7761 18 18 17.7761 18 17.5V16.5C18 16.2239 17.7761 16 17.5 16H16.5ZM16 13.5C16 13.2239 16.2239 13 16.5 13H17.5C17.7761 13 18 13.2239 18 13.5V14.5C18 14.7761 17.7761 15 17.5 15H16.5C16.2239 15 16 14.7761 16 14.5V13.5ZM13.5 16C13.2239 16 13 16.2239 13 16.5V17.5C13 17.7761 13.2239 18 13.5 18H14.5C14.7761 18 15 17.7761 15 17.5V16.5C15 16.2239 14.7761 16 14.5 16H13.5Z" fill="#2F2F2F"/>
</svg>
