<svg width="24" height="24" viewBox="0 0 24 24" fill="none" xmlns="http://www.w3.org/2000/svg">
<path d="M5 3C3.90694 3 3 3.90694 3 5V15.1719C3 15.9673 3.3166 16.7307 3.87891 17.293L6.70703 20.1211C7.26934 20.6834 8.03272 21 8.82812 21H19C20.0931 21 21 20.0931 21 19V8.82812C21 8.03272 20.6834 7.26934 20.1211 6.70703L17.293 3.87891C16.7307 3.3166 15.9673 3 15.1719 3H5ZM6.41406 5H15.1719C15.4365 5 15.6912 5.10527 15.8789 5.29297L17.5859 7H8.41406L6.41406 5ZM5 6.41406L7 8.41406V17.5859L5.29297 15.8789C5.10527 15.6912 5 15.4365 5 15.1719V6.41406ZM9 9H19V19H9V9Z" fill="#2F2F2F"/>
</svg>
