<svg width="28" height="28" viewBox="0 0 28 28" fill="none" xmlns="http://www.w3.org/2000/svg">
<path fill-rule="evenodd" clip-rule="evenodd" d="M10.3437 11.8257L6.84375 8.32574L8.32867 6.84082L11.8287 10.3408L10.3437 11.8257Z" fill="#2F2F2F"/>
<path fill-rule="evenodd" clip-rule="evenodd" d="M16.1719 10.3408L19.6719 6.84082L21.1568 8.32574L17.6568 11.8257L16.1719 10.3408Z" fill="#2F2F2F"/>
<path fill-rule="evenodd" clip-rule="evenodd" d="M11.8287 17.6588L8.32867 21.1588L6.84375 19.6738L10.3437 16.1738L11.8287 17.6588Z" fill="#2F2F2F"/>
<path fill-rule="evenodd" clip-rule="evenodd" d="M17.6568 16.1738L20.5735 19.0905L19.0885 20.5754L16.1719 17.6588L17.6568 16.1738Z" fill="#2F2F2F"/>
<path fill-rule="evenodd" clip-rule="evenodd" d="M5.83594 7.23301C6.60914 7.23301 7.23594 6.60621 7.23594 5.83301C7.23594 5.05981 6.60914 4.43301 5.83594 4.43301C5.06274 4.43301 4.43594 5.05981 4.43594 5.83301C4.43594 6.60621 5.06274 7.23301 5.83594 7.23301ZM5.83594 9.33301C7.76893 9.33301 9.33594 7.766 9.33594 5.83301C9.33594 3.90001 7.76893 2.33301 5.83594 2.33301C3.90294 2.33301 2.33594 3.90001 2.33594 5.83301C2.33594 7.766 3.90294 9.33301 5.83594 9.33301Z" fill="#2F2F2F"/>
<path fill-rule="evenodd" clip-rule="evenodd" d="M5.83594 23.567C6.60914 23.567 7.23594 22.9402 7.23594 22.167C7.23594 21.3938 6.60914 20.767 5.83594 20.767C5.06274 20.767 4.43594 21.3938 4.43594 22.167C4.43594 22.9402 5.06274 23.567 5.83594 23.567ZM5.83594 25.667C7.76893 25.667 9.33594 24.1 9.33594 22.167C9.33594 20.234 7.76893 18.667 5.83594 18.667C3.90294 18.667 2.33594 20.234 2.33594 22.167C2.33594 24.1 3.90294 25.667 5.83594 25.667Z" fill="#2F2F2F"/>
<path fill-rule="evenodd" clip-rule="evenodd" d="M22.1641 7.23301C22.9373 7.23301 23.5641 6.60621 23.5641 5.83301C23.5641 5.05981 22.9373 4.43301 22.1641 4.43301C21.3909 4.43301 20.7641 5.05981 20.7641 5.83301C20.7641 6.60621 21.3909 7.23301 22.1641 7.23301ZM22.1641 9.33301C24.0971 9.33301 25.6641 7.766 25.6641 5.83301C25.6641 3.90001 24.0971 2.33301 22.1641 2.33301C20.2311 2.33301 18.6641 3.90001 18.6641 5.83301C18.6641 7.766 20.2311 9.33301 22.1641 9.33301Z" fill="#2F2F2F"/>
<path fill-rule="evenodd" clip-rule="evenodd" d="M22.1641 23.567C22.9373 23.567 23.5641 22.9402 23.5641 22.167C23.5641 21.3938 22.9373 20.767 22.1641 20.767C21.3909 20.767 20.7641 21.3938 20.7641 22.167C20.7641 22.9402 21.3909 23.567 22.1641 23.567ZM22.1641 25.667C24.0971 25.667 25.6641 24.1 25.6641 22.167C25.6641 20.234 24.0971 18.667 22.1641 18.667C20.2311 18.667 18.6641 20.234 18.6641 22.167C18.6641 24.1 20.2311 25.667 22.1641 25.667Z" fill="#2F2F2F"/>
<path fill-rule="evenodd" clip-rule="evenodd" d="M14.0026 16.5663C15.4201 16.5663 16.5693 15.4172 16.5693 13.9997C16.5693 12.5821 15.4201 11.433 14.0026 11.433C12.5851 11.433 11.4359 12.5821 11.4359 13.9997C11.4359 15.4172 12.5851 16.5663 14.0026 16.5663ZM14.0026 18.6663C16.5799 18.6663 18.6693 16.577 18.6693 13.9997C18.6693 11.4223 16.5799 9.33301 14.0026 9.33301C11.4253 9.33301 9.33594 11.4223 9.33594 13.9997C9.33594 16.577 11.4253 18.6663 14.0026 18.6663Z" fill="#2F2F2F"/>
</svg>
