<svg width="24" height="24" viewBox="0 0 24 24" fill="none" xmlns="http://www.w3.org/2000/svg">
  <path fill-rule="evenodd" clip-rule="evenodd"
        d="M15 3H14C13.4477 3 13 3.44772 13 4C13 4.55228 13.4477 5 14 5H15C15.5523 5 16 4.55228 16 4C16 3.44772 15.5523 3 15 3ZM14 1H15C16.3062 1 17.4175 1.83481 17.8293 3H19.25C20.9069 3 22.25 4.34315 22.25 6V15C22.25 16.6569 20.9069 18 19.25 18H15.75V20C15.75 21.6569 14.4069 23 12.75 23H4.75C3.09315 23 1.75 21.6569 1.75 20V12C1.75 10.3431 3.09315 9 4.75 9H6.75V6C6.75 4.34315 8.09315 3 9.75 3H11.1707C11.5825 1.83481 12.6938 1 14 1ZM8.75 9H12.75C14.4069 9 15.75 10.3431 15.75 12V16H19.25C19.8023 16 20.25 15.5523 20.25 15V6C20.25 5.44771 19.8023 5 19.25 5H17.8293C17.4175 6.16519 16.3062 7 15 7H14C12.6938 7 11.5825 6.16519 11.1707 5H9.75C9.19771 5 8.75 5.44772 8.75 6V9ZM13.75 12C13.75 11.4477 13.3023 11 12.75 11H4.75C4.19772 11 3.75 11.4477 3.75 12V20C3.75 20.5523 4.19772 21 4.75 21H12.75C13.3023 21 13.75 20.5523 13.75 20V12ZM6.25 13C5.69772 13 5.25 13.4477 5.25 14C5.25 14.5523 5.69772 15 6.25 15H11.25C11.8023 15 12.25 14.5523 12.25 14C12.25 13.4477 11.8023 13 11.25 13H6.25ZM6.25 16.5C5.69772 16.5 5.25 16.9477 5.25 17.5C5.25 18.0523 5.69772 18.5 6.25 18.5H9.25C9.80228 18.5 10.25 18.0523 10.25 17.5C10.25 16.9477 9.80228 16.5 9.25 16.5H6.25Z"
        fill="#01B26E"/>
</svg>
