<svg width="24" height="24" viewBox="0 0 24 24" fill="none" xmlns="http://www.w3.org/2000/svg">
  <path fill-rule="evenodd" clip-rule="evenodd"
        d="M1.5 12L12 1.5L22.5 12L12 22.5L1.5 12ZM4.32843 12L12 19.6716L19.6716 12L12 4.32843L4.32843 12Z"
        fill="#2F2F2F"/>
  <path fill-rule="evenodd" clip-rule="evenodd"
        d="M12 14C13.1046 14 14 13.1046 14 12C14 10.8954 13.1046 10 12 10C10.8954 10 10 10.8954 10 12C10 13.1046 10.8954 14 12 14ZM12 16C14.2091 16 16 14.2091 16 12C16 9.79086 14.2091 8 12 8C9.79086 8 8 9.79086 8 12C8 14.2091 9.79086 16 12 16Z"
        fill="#2F2F2F"/>
</svg>
