<svg width="24" height="24" viewBox="0 0 24 24" fill="none" xmlns="http://www.w3.org/2000/svg">
<path d="M7.30469 21.5801H16.6914C18.6162 21.5801 19.6445 20.543 19.6445 18.6006V10.6289C19.6445 9.3457 19.4688 8.73047 18.6602 7.91309L14.2129 3.4043C13.4307 2.60449 12.7715 2.41992 11.585 2.41992H7.30469C5.37988 2.41992 4.35156 3.44824 4.35156 5.39062V18.6006C4.35156 20.543 5.37109 21.5801 7.30469 21.5801ZM7.49805 19.6201C6.69824 19.6201 6.31152 19.207 6.31152 18.4336V5.55762C6.31152 4.79297 6.69824 4.37109 7.50684 4.37109H11.1191V8.96777C11.1191 10.3389 11.7871 10.998 13.1582 10.998H17.6846V18.4336C17.6846 19.207 17.2979 19.6201 16.4893 19.6201H7.49805ZM13.3252 9.33691C12.9561 9.33691 12.7891 9.16992 12.7891 8.80078V4.59082L17.4736 9.33691H13.3252Z" fill="#2F2F2F"/>
<path fill-rule="evenodd" clip-rule="evenodd" d="M10.8165 13.0511C11.3404 13.2257 11.6236 13.7921 11.449 14.316L10.449 17.316C10.2743 17.84 9.70799 18.1231 9.18404 17.9485C8.6601 17.7738 8.37694 17.2075 8.55159 16.6836L9.55159 13.6836C9.72624 13.1596 10.2926 12.8765 10.8165 13.0511Z" fill="#2F2F2F"/>
<path fill-rule="evenodd" clip-rule="evenodd" d="M14.8165 13.0511C15.3404 13.2257 15.6236 13.7921 15.449 14.316L14.449 17.316C14.2743 17.84 13.708 18.1231 13.184 17.9485C12.6601 17.7738 12.3769 17.2075 12.5516 16.6836L13.5516 13.6836C13.7262 13.1596 14.2926 12.8765 14.8165 13.0511Z" fill="#2F2F2F"/>
</svg>
