<svg width="24" height="24" viewBox="0 0 24 24" fill="none" xmlns="http://www.w3.org/2000/svg">
<path fill-rule="evenodd" clip-rule="evenodd" d="M11.9986 1.82495C9.14059 1.82495 6.82357 4.14197 6.82357 6.99995V8.49162H6.16523C4.68782 8.49162 3.49023 9.68921 3.49023 11.1666V19.5C3.49023 20.9774 4.68782 22.175 6.16523 22.175H17.8319C19.3093 22.175 20.5069 20.9774 20.5069 19.5V11.1666C20.5069 9.68921 19.3093 8.49162 17.8319 8.49162H17.1736V6.99995C17.1736 4.14197 14.8566 1.82495 11.9986 1.82495ZM8.84024 6.99995C8.84024 5.25565 10.2543 3.84162 11.9986 3.84162C13.7429 3.84162 15.1569 5.25565 15.1569 6.99995V8.49162H8.84024V6.99995ZM5.5069 11.1666C5.5069 10.8031 5.80169 10.5083 6.16523 10.5083H17.8319C18.1954 10.5083 18.4902 10.8031 18.4902 11.1666V19.5C18.4902 19.8635 18.1954 20.1583 17.8319 20.1583H6.16523C5.80169 20.1583 5.5069 19.8635 5.5069 19.5V11.1666ZM11.9986 12.6583C11.7582 12.6583 11.509 12.7756 11.3226 12.9494C11.1345 13.1248 10.9902 13.3768 10.9902 13.6666V17C10.9902 17.5568 11.4417 18.0083 11.9986 18.0083C12.239 18.0083 12.4882 17.891 12.6745 17.7172C12.8626 17.5418 13.0069 17.2898 13.0069 17V13.6666C13.0069 13.1098 12.5554 12.6583 11.9986 12.6583Z" fill="#01B26E"/>
</svg>
