<svg width="24" height="24" viewBox="0 0 24 24" fill="none" xmlns="http://www.w3.org/2000/svg">
<path fill-rule="evenodd" clip-rule="evenodd" d="M11.9983 1.825C9.14034 1.825 6.82332 4.14202 6.82332 7V8.49167H6.16499C4.68758 8.49167 3.48999 9.68926 3.48999 11.1667V19.5C3.48999 20.9774 4.68758 22.175 6.16499 22.175H17.8317C19.3091 22.175 20.5067 20.9774 20.5067 19.5V11.1667C20.5067 9.68926 19.3091 8.49167 17.8317 8.49167H17.1733V7C17.1733 4.14202 14.8563 1.825 11.9983 1.825ZM8.83999 7C8.83999 5.2557 10.254 3.84167 11.9983 3.84167C13.7426 3.84167 15.1567 5.2557 15.1567 7V8.49167H8.83999V7ZM5.50666 11.1667C5.50666 10.8031 5.80145 10.5083 6.16499 10.5083H17.8317C18.1952 10.5083 18.49 10.8031 18.49 11.1667V19.5C18.49 19.8635 18.1952 20.1583 17.8317 20.1583H6.16499C5.80145 20.1583 5.50666 19.8635 5.50666 19.5V11.1667ZM11.9983 12.6583C11.7579 12.6583 11.5087 12.7756 11.3224 12.9495C11.1343 13.1249 10.99 13.3769 10.99 13.6667V17C10.99 17.5568 11.4415 18.0083 11.9983 18.0083C12.2387 18.0083 12.4879 17.891 12.6743 17.7172C12.8623 17.5418 13.0067 17.2898 13.0067 17V13.6667C13.0067 13.1098 12.5552 12.6583 11.9983 12.6583Z" fill="#2F2F2F"/>
</svg>
