<svg width="62" height="62" viewBox="0 0 62 62" fill="none" xmlns="http://www.w3.org/2000/svg">
<path fill-rule="evenodd" clip-rule="evenodd" d="M6.16797 37.4582C6.16797 34.07 8.66426 31.2649 11.918 30.7817V34.0162C10.4256 34.4491 9.33464 35.8262 9.33464 37.4582V47.7915C9.33464 51.1973 12.0955 53.9582 15.5013 53.9582H46.5013C49.9071 53.9582 52.668 51.1973 52.668 47.7915V37.4582C52.668 35.8262 51.577 34.4491 50.0846 34.0162V30.7817C53.3383 31.2649 55.8346 34.07 55.8346 37.4582V47.7915C55.8346 52.9462 51.656 57.1248 46.5013 57.1248H15.5013C10.3466 57.1248 6.16797 52.9462 6.16797 47.7915V37.4582Z" fill="#01B26E"/>
<path fill-rule="evenodd" clip-rule="evenodd" d="M11.3359 24.5417C11.3359 13.6801 20.141 4.875 31.0026 4.875C41.8642 4.875 50.6693 13.6801 50.6693 24.5417C50.6693 30.4592 48.057 35.7654 43.9194 39.3722L42.495 40.6139L44.3228 41.0933C45.0024 41.2716 45.5026 41.8911 45.5026 42.625C45.5026 43.4995 44.7937 44.2083 43.9193 44.2083H18.0859C17.2115 44.2083 16.5026 43.4995 16.5026 42.625C16.5026 41.8911 17.0028 41.2716 17.6824 41.0933L19.5102 40.6139L18.0858 39.3722C13.9482 35.7654 11.3359 30.4592 11.3359 24.5417ZM31.0026 8.04167C21.8899 8.04167 14.5026 15.429 14.5026 24.5417C14.5026 33.6544 21.8899 41.0417 31.0026 41.0417C40.1153 41.0417 47.5026 33.6544 47.5026 24.5417C47.5026 15.429 40.1153 8.04167 31.0026 8.04167Z" fill="#01B26E"/>
</svg>
