<svg width="25" height="24" viewBox="0 0 25 24" fill="none" xmlns="http://www.w3.org/2000/svg">
  <path fill-rule="evenodd" clip-rule="evenodd"
        d="M10.1679 12.7929C9.77737 13.1834 9.77737 13.8166 10.1679 14.2071C10.5584 14.5976 11.1916 14.5976 11.5821 14.2071L19.875 5.91422V9C19.875 9.55229 20.3227 10 20.875 10C21.4273 10 21.875 9.55229 21.875 9L21.875 3.50018V3.5C21.875 3.36333 21.8476 3.23307 21.798 3.1144C21.7512 3.00237 21.6832 2.89712 21.5938 2.80482L21.593 2.80391C21.5858 2.79651 21.5785 2.78922 21.5711 2.78205L21.5708 2.78177C21.4784 2.69216 21.3729 2.62391 21.2606 2.57705C21.1419 2.52742 21.0117 2.5 20.875 2.5H15.375C14.8227 2.5 14.375 2.94772 14.375 3.5C14.375 4.05229 14.8227 4.5 15.375 4.5L18.4608 4.5L10.1679 12.7929ZM5.875 2.99983C4.21815 2.99983 2.875 4.34298 2.875 5.99983V18.4998C2.875 20.1567 4.21815 21.4998 5.875 21.4998H18.375C20.0319 21.4998 21.375 20.1567 21.375 18.4998V13.4998C21.375 12.9475 20.9273 12.4998 20.375 12.4998C19.8227 12.4998 19.375 12.9475 19.375 13.4998V18.4998C19.375 19.0521 18.9273 19.4998 18.375 19.4998H5.875C5.32272 19.4998 4.875 19.0521 4.875 18.4998V5.99983C4.875 5.44755 5.32272 4.99983 5.875 4.99983H10.875C11.4273 4.99983 11.875 4.55212 11.875 3.99983C11.875 3.44755 11.4273 2.99983 10.875 2.99983H5.875Z"
        fill="#2F2F2F"/>
</svg>
