<svg width="24" height="24" viewBox="0 0 24 24" fill="none" xmlns="http://www.w3.org/2000/svg">
  <path
    d="M0 11.9942C0 12.2628 0.0966797 12.4991 0.300781 12.7032L8.81934 21.0284C9.00195 21.2218 9.23828 21.3184 9.51758 21.3184C10.0762 21.3184 10.5059 20.8995 10.5059 20.3409C10.5059 20.0616 10.3877 19.8253 10.2158 19.6427L2.39551 11.9942L10.2158 4.34578C10.3877 4.16316 10.5059 3.91609 10.5059 3.64754C10.5059 3.08894 10.0762 2.67 9.51758 2.67C9.23828 2.67 9.00195 2.76668 8.81934 2.9493L0.300781 11.2852C0.0966797 11.4786 0 11.7257 0 11.9942Z"
    fill="#2F2F2F"/>
</svg>
