<svg width="20" height="20" viewBox="0 0 20 20" fill="none" xmlns="http://www.w3.org/2000/svg">
<path fill-rule="evenodd" clip-rule="evenodd" d="M16.026 7.63042C13.3226 3.01208 6.68 3.01208 3.97665 7.63042C3.12063 9.09283 3.12063 10.9072 3.97665 12.3696C6.68 16.9879 13.3226 16.9879 16.026 12.3696C16.882 10.9072 16.882 9.09283 16.026 7.63042ZM2.53828 6.78847C5.8853 1.07051 14.1173 1.07051 17.4643 6.78847C18.6247 8.77091 18.6247 11.2291 17.4643 13.2115C14.1173 18.9295 5.8853 18.9295 2.53828 13.2115C1.37786 11.2291 1.37786 8.77091 2.53828 6.78847ZM10.0008 7.87249C8.83669 7.87249 7.87073 8.83442 7.87073 10.0506C7.87073 11.2656 8.83652 12.2277 10.0008 12.2277C11.1655 12.2277 12.1319 11.2653 12.1319 10.0506C12.1319 8.83476 11.1653 7.87249 10.0008 7.87249ZM6.20406 10.0506C6.20406 7.93913 7.89123 6.20582 10.0008 6.20582C12.1101 6.20582 13.7985 7.93879 13.7985 10.0506C13.7985 12.1616 12.1099 13.8944 10.0008 13.8944C7.8914 13.8944 6.20406 12.1613 6.20406 10.0506Z" fill="#2F2F2F"/>
</svg>
