<svg width="24" height="24" viewBox="0 0 24 24" fill="none" xmlns="http://www.w3.org/2000/svg">
<path fill-rule="evenodd" clip-rule="evenodd" d="M9.30369 3.74653C9.59711 3.14503 10.0832 2.65891 10.6847 2.36549C12.1739 1.63909 13.9699 2.2574 14.6963 3.74653L21.4954 17.6847C21.6953 18.0944 21.7991 18.5442 21.7991 19C21.7991 20.6569 20.456 22 18.7991 22H5.20087C4.74507 22 4.29526 21.8961 3.8856 21.6963C2.39648 20.9699 1.77817 19.1739 2.50457 17.6847L9.30369 3.74653ZM12 10C11.4477 10 11 10.4477 11 11V14C11 14.5523 11.4477 15 12 15C12.5523 15 13 14.5523 13 14V11C13 10.4477 12.5523 10 12 10ZM11 17C11 17.5523 11.4477 18 12 18C12.5523 18 13 17.5523 13 17C13 16.4477 12.5523 16 12 16C11.4477 16 11 16.4477 11 17ZM11.1012 4.62338C11.199 4.42288 11.3611 4.26084 11.5616 4.16303C12.0579 3.9209 12.6566 4.127 12.8988 4.62338L19.6979 18.5616C19.7645 18.6981 19.7991 18.8481 19.7991 19C19.7991 19.5523 19.3514 20 18.7991 20H5.20087C5.04894 20 4.899 19.9654 4.76245 19.8988C4.26607 19.6566 4.05997 19.058 4.3021 18.5616L11.1012 4.62338Z" fill="#2F2F2F"/>
</svg>
