<svg width="16" height="16" viewBox="0 0 16 16" fill="none" xmlns="http://www.w3.org/2000/svg">
<path fill-rule="evenodd" clip-rule="evenodd" d="M6.66681 1.87207L6.2574 2.32697C5.72349 2.9202 4.95807 3.1777 4.21767 3.01317L2.78944 2.69578L2.78943 2.69578C2.72514 2.68393 2.72514 2.68393 2.66 2.68154C2.29549 2.68154 2 3.00987 2 3.41488V7.33355C2 10.4046 3.59063 12.6907 6.66681 14.1525V12.6905C4.32711 11.4406 3.2 9.66561 3.2 7.33355V4.14676L3.98233 4.32061C4.92614 4.53034 5.89649 4.29227 6.66681 3.6826V1.87207ZM7.32917 14.4451C7.48616 14.5095 7.64653 14.572 7.81026 14.6327L8 14.703L8.18974 14.6327C8.35348 14.572 8.51384 14.5095 8.67083 14.4451L7.32917 14.4451Z" fill="#B26F1D"/>
<path opacity="0.5" fill-rule="evenodd" clip-rule="evenodd" d="M9.33244 1.87207V3.68251C10.1027 4.29201 11.0729 4.53001 12.0166 4.3203L12.799 4.14645V7.33325C12.799 9.6652 11.672 11.4401 9.33244 12.6901V14.152C12.4084 12.6903 13.999 10.4042 13.999 7.33325V3.41457C13.9979 3.37833 13.9974 3.36024 13.9957 3.34224C13.9941 3.32429 13.9915 3.30643 13.9862 3.27076L13.9862 3.27075C13.9147 2.8736 13.567 2.61604 13.2095 2.69547L11.7813 3.01286C11.0409 3.17739 10.2755 2.91989 9.74156 2.32666L9.33244 1.87207ZM8.66981 14.4447L7.32812 14.4447C7.48511 14.5092 7.64549 14.5717 7.80923 14.6324L7.99897 14.7026L8.1887 14.6324C8.35245 14.5717 8.51282 14.5092 8.66981 14.4447Z" fill="#B26F1D"/>
<path fill-rule="evenodd" clip-rule="evenodd" d="M8.00093 0.888492C8.36912 0.888493 8.6676 1.18697 8.6676 1.55516V14.4448C8.6676 14.813 8.36912 15.1115 8.00093 15.1115C7.63274 15.1115 7.33427 14.813 7.33427 14.4448V1.55516C7.33427 1.18697 7.63274 0.888494 8.00093 0.888492Z" fill="#B26F1D"/>
</svg>
