<svg width="24" height="24" viewBox="0 0 24 24" fill="none" xmlns="http://www.w3.org/2000/svg">
<path fill-rule="evenodd" clip-rule="evenodd" d="M5.18527 8.58C5.18527 8.83587 5.28469 9.09203 5.48019 9.28703L11.1364 14.9433C11.5274 15.3343 12.1605 15.3343 12.5505 14.9433L18.2068 9.28703C18.5978 8.89603 18.5978 8.26297 18.2068 7.87297L18.1208 7.78703C17.7298 7.39603 17.0968 7.39603 16.7068 7.78703L12.8435 11.6503L12.8435 3.58C12.8435 3.028 12.3955 2.58 11.8435 2.58C11.2915 2.58 10.8435 3.028 10.8435 3.58L10.8435 11.6503L6.98019 7.78703C6.58919 7.39603 5.95613 7.39603 5.56613 7.78703L5.48019 7.87297C5.28469 8.06847 5.18527 8.32412 5.18527 8.58ZM4.5 20.4091C4.5 19.8568 4.94772 19.4091 5.5 19.4091L18.5 19.4091C19.0523 19.4091 19.5 19.8568 19.5 20.4091C19.5 20.9614 19.0523 21.4091 18.5 21.4091L5.5 21.4091C4.94772 21.4091 4.5 20.9614 4.5 20.4091Z" fill="#2F2F2F"/>
</svg>
