<svg width="24" height="24" viewBox="0 0 24 24" fill="none" xmlns="http://www.w3.org/2000/svg">
<path fill-rule="evenodd" clip-rule="evenodd" d="M8 2.5C8 1.94772 8.44772 1.5 9 1.5H15C15.5523 1.5 16 1.94772 16 2.5C16 3.05228 15.5523 3.5 15 3.5H9C8.44772 3.5 8 3.05228 8 2.5ZM12 20.5C15.866 20.5 19 17.366 19 13.5C19 9.63401 15.866 6.5 12 6.5C8.13401 6.5 5 9.63401 5 13.5C5 17.366 8.13401 20.5 12 20.5ZM12 22.5C16.9706 22.5 21 18.4706 21 13.5C21 8.52944 16.9706 4.5 12 4.5C7.02944 4.5 3 8.52944 3 13.5C3 18.4706 7.02944 22.5 12 22.5ZM13 8.5C13 7.94772 12.5523 7.5 12 7.5C11.4477 7.5 11 7.94772 11 8.5V12.7769C11 13.4719 11.4487 14.0875 12.1104 14.3002L15.694 15.452C16.2198 15.621 16.783 15.3318 16.952 14.806C17.121 14.2802 16.8318 13.717 16.306 13.548L13 12.4853V8.5Z" fill="#01B26E"/>
</svg>
