<svg width="24" height="24" viewBox="0 0 24 24" fill="none" xmlns="http://www.w3.org/2000/svg">
  <path fill-rule="evenodd" clip-rule="evenodd"
        d="M2.00001 12C2.00001 17.5228 6.47716 22 12 22C17.5229 22 22 17.5228 22 12C22 6.47715 17.5229 2 12 2C6.47716 2 2.00001 6.47715 2.00001 12ZM16.9624 11C16.7826 8.63418 15.9597 6.42983 14.506 4.40036C17.3918 5.35143 19.5516 7.90037 19.9381 11H16.9624ZM9.0446 13C9.25774 15.3624 10.2361 17.535 12 19.54C13.764 17.535 14.7423 15.3624 14.9554 13H9.0446ZM14.506 19.5996C17.3918 18.6486 19.5516 16.0996 19.9381 13H16.9624C16.7826 15.3658 15.9597 17.5702 14.506 19.5996ZM14.9554 11C14.7423 8.63762 13.764 6.465 12 4.45996C10.2361 6.465 9.25774 8.63762 9.0446 11H14.9554ZM7.03765 13C7.21741 15.3658 8.04031 17.5702 9.49399 19.5996C6.60817 18.6486 4.44841 16.0996 4.06189 13H7.03765ZM9.49399 4.40036C6.60817 5.35143 4.44841 7.90037 4.06189 11H7.03765C7.21741 8.63418 8.04031 6.42983 9.49399 4.40036Z"
        fill="#2F2F2F"/>
</svg>
